<svg width="264" height="20" viewBox="0 0 264 20" fill="none" xmlns="http://www.w3.org/2000/svg">
<path d="M4.58341 14.5833H3.33341V5.41666H9.83342L9.16675 6.08332C9.00008 6.24999 8.91675 6.41666 8.91675 6.66666C8.91675 7.16666 9.25008 7.49999 9.75008 7.49999C10.0001 7.49999 10.1667 7.41666 10.3334 7.24999L12.4167 5.16666C12.7501 4.83332 12.7501 4.33332 12.4167 3.99999L10.3334 1.91666C10.0001 1.58332 9.50008 1.58332 9.16675 1.91666C8.83342 2.24999 8.83342 2.74999 9.16675 3.08332L9.83342 3.74999H2.50008C2.00008 3.74999 1.66675 4.08332 1.66675 4.58332V15.4167C1.66675 15.9167 2.00008 16.25 2.50008 16.25H4.58341C5.08341 16.25 5.41675 15.9167 5.41675 15.4167C5.41675 14.9167 5.08341 14.5833 4.58341 14.5833ZM17.5001 3.74999H15.4167C14.9167 3.74999 14.5834 4.08332 14.5834 4.58332C14.5834 5.08332 14.9167 5.41666 15.4167 5.41666H16.6667V14.5833H9.66675L10.3334 13.9167C10.6667 13.5833 10.6667 13.0833 10.3334 12.75C10.0001 12.4167 9.50008 12.4167 9.16675 12.75L7.08342 14.8333C6.75008 15.1667 6.75008 15.6667 7.08342 16L9.16675 18.0833C9.33342 18.25 9.50008 18.3333 9.75008 18.3333C10.0001 18.3333 10.1667 18.25 10.3334 18.0833C10.6667 17.75 10.6667 17.25 10.3334 16.9167L9.66675 16.25H17.5001C18.0001 16.25 18.3334 15.9167 18.3334 15.4167V4.58332C18.3334 4.08332 18.0001 3.74999 17.5001 3.74999Z" fill="#72767C"/>
<path d="M40.13 15.168C39.4953 15.168 38.9167 15.056 38.394 14.832C37.8807 14.5987 37.47 14.2487 37.162 13.782C36.854 13.3153 36.6907 12.732 36.672 12.032H38.142C38.1607 12.5547 38.338 12.998 38.674 13.362C39.0193 13.7167 39.5047 13.894 40.13 13.894C40.7273 13.894 41.1847 13.7307 41.502 13.404C41.8193 13.068 41.978 12.6527 41.978 12.158C41.978 11.5607 41.7633 11.1173 41.334 10.828C40.914 10.5387 40.396 10.394 39.78 10.394H39.052V9.162H39.794C40.3447 9.162 40.788 9.03133 41.124 8.77C41.4693 8.50867 41.642 8.14 41.642 7.664C41.642 7.26267 41.5067 6.936 41.236 6.684C40.9747 6.432 40.6013 6.306 40.116 6.306C39.612 6.306 39.2153 6.45533 38.926 6.754C38.6367 7.04333 38.478 7.40733 38.45 7.846H36.98C36.9987 7.27667 37.1387 6.782 37.4 6.362C37.6707 5.942 38.0393 5.61533 38.506 5.382C38.9727 5.14867 39.5093 5.032 40.116 5.032C40.7693 5.032 41.3153 5.14867 41.754 5.382C42.202 5.606 42.538 5.914 42.762 6.306C42.9953 6.68867 43.112 7.10867 43.112 7.566C43.112 8.08867 42.9673 8.546 42.678 8.938C42.3887 9.33 42.0013 9.59133 41.516 9.722C42.076 9.84333 42.538 10.1187 42.902 10.548C43.266 10.968 43.448 11.514 43.448 12.186C43.448 12.7273 43.322 13.2267 43.07 13.684C42.818 14.132 42.4447 14.4913 41.95 14.762C41.4553 15.0327 40.8487 15.168 40.13 15.168ZM48.6952 15.168C48.0045 15.168 47.4072 15.0467 46.9032 14.804C46.3992 14.552 45.9978 14.2113 45.6992 13.782C45.4098 13.3433 45.2325 12.8487 45.1672 12.298H46.6232C46.7165 12.7647 46.9498 13.152 47.3232 13.46C47.6965 13.7587 48.1585 13.908 48.7092 13.908C49.1198 13.908 49.4745 13.81 49.7732 13.614C50.0718 13.4087 50.3052 13.138 50.4732 12.802C50.6412 12.466 50.7252 12.088 50.7252 11.668C50.7252 11.0053 50.5385 10.478 50.1652 10.086C49.7918 9.68467 49.3205 9.484 48.7512 9.484C48.2658 9.484 47.8505 9.60067 47.5052 9.834C47.1598 10.058 46.9078 10.3427 46.7492 10.688H45.3352L46.1752 5.2H51.4672V6.502H47.2952L46.7912 9.12C47.0058 8.87733 47.2998 8.67667 47.6732 8.518C48.0558 8.35 48.4852 8.266 48.9612 8.266C49.6238 8.266 50.1932 8.42 50.6692 8.728C51.1452 9.02667 51.5092 9.43267 51.7612 9.946C52.0225 10.4593 52.1532 11.0287 52.1532 11.654C52.1532 12.3073 52.0132 12.9 51.7332 13.432C51.4532 13.964 51.0518 14.3887 50.5292 14.706C50.0158 15.014 49.4045 15.168 48.6952 15.168ZM57.8261 15.168C56.9394 15.168 56.1741 14.958 55.5301 14.538C54.8954 14.1087 54.4054 13.516 54.0601 12.76C53.7241 11.9947 53.5561 11.108 53.5561 10.1C53.5561 9.092 53.7241 8.21 54.0601 7.454C54.4054 6.68867 54.8954 6.096 55.5301 5.676C56.1741 5.24667 56.9394 5.032 57.8261 5.032C58.7128 5.032 59.4734 5.24667 60.1081 5.676C60.7428 6.096 61.2281 6.68867 61.5641 7.454C61.9094 8.21 62.0821 9.092 62.0821 10.1C62.0821 11.108 61.9094 11.9947 61.5641 12.76C61.2281 13.516 60.7428 14.1087 60.1081 14.538C59.4734 14.958 58.7128 15.168 57.8261 15.168ZM57.8261 13.838C58.3581 13.838 58.8294 13.6887 59.2401 13.39C59.6601 13.0913 59.9868 12.662 60.2201 12.102C60.4534 11.542 60.5701 10.8747 60.5701 10.1C60.5701 9.32533 60.4534 8.658 60.2201 8.098C59.9868 7.538 59.6601 7.10867 59.2401 6.81C58.8294 6.51133 58.3581 6.362 57.8261 6.362C57.2848 6.362 56.8088 6.51133 56.3981 6.81C55.9874 7.10867 55.6654 7.538 55.4321 8.098C55.1988 8.658 55.0821 9.32533 55.0821 10.1C55.0821 10.8747 55.1988 11.542 55.4321 12.102C55.6654 12.662 55.9874 13.0913 56.3981 13.39C56.8088 13.6887 57.2848 13.838 57.8261 13.838ZM63.7362 15V5.2H65.2202V9.4L69.0842 5.2H70.9182L67.2922 9.106L71.0022 15H69.1962L66.2282 10.24L65.2202 11.332V15H63.7362Z" fill="#72767C"/>
<path d="M97.3371 9.33721H96.6705V8.67054C96.6705 8.49373 96.6002 8.32416 96.4752 8.19914C96.3502 8.07411 96.1806 8.00388 96.0038 8.00388C95.827 8.00388 95.6574 8.07411 95.5324 8.19914C95.4074 8.32416 95.3371 8.49373 95.3371 8.67054V9.33721H94.6705C94.4936 9.33721 94.3241 9.40745 94.199 9.53247C94.074 9.6575 94.0038 9.82706 94.0038 10.0039C94.0038 10.1807 94.074 10.3503 94.199 10.4753C94.3241 10.6003 94.4936 10.6705 94.6705 10.6705H95.3371V11.3372C95.3371 11.514 95.4074 11.6836 95.5324 11.8086C95.6574 11.9336 95.827 12.0039 96.0038 12.0039C96.1806 12.0039 96.3502 11.9336 96.4752 11.8086C96.6002 11.6836 96.6705 11.514 96.6705 11.3372V10.6705H97.3371C97.5139 10.6705 97.6835 10.6003 97.8085 10.4753C97.9335 10.3503 98.0038 10.1807 98.0038 10.0039C98.0038 9.82706 97.9335 9.6575 97.8085 9.53247C97.6835 9.40745 97.5139 9.33721 97.3371 9.33721ZM102.477 9.53054L100.91 8.00388V5.76388C100.91 5.58706 100.84 5.4175 100.715 5.29247C100.59 5.16745 100.421 5.09721 100.244 5.09721H98.0371L96.4771 3.53054C96.4151 3.46806 96.3414 3.41846 96.2602 3.38461C96.1789 3.35077 96.0918 3.33334 96.0038 3.33334C95.9158 3.33334 95.8286 3.35077 95.7474 3.38461C95.6662 3.41846 95.5924 3.46806 95.5305 3.53054L94.0038 5.09721H91.7638C91.587 5.09721 91.4174 5.16745 91.2924 5.29247C91.1674 5.4175 91.0971 5.58706 91.0971 5.76388V8.00388L89.5305 9.53054C89.468 9.59252 89.4184 9.66625 89.3845 9.74749C89.3507 9.82873 89.3333 9.91587 89.3333 10.0039C89.3333 10.0919 89.3507 10.179 89.3845 10.2603C89.4184 10.3415 89.468 10.4152 89.5305 10.4772L91.0971 12.0372V14.2439C91.0971 14.4207 91.1674 14.5903 91.2924 14.7153C91.4174 14.8403 91.587 14.9105 91.7638 14.9105H94.0038L95.5638 16.4772C95.6258 16.5397 95.6995 16.5893 95.7807 16.6231C95.862 16.657 95.9491 16.6744 96.0371 16.6744C96.1251 16.6744 96.2123 16.657 96.2935 16.6231C96.3747 16.5893 96.4485 16.5397 96.5105 16.4772L98.0705 14.9105H100.277C100.454 14.9105 100.623 14.8403 100.749 14.7153C100.874 14.5903 100.944 14.4207 100.944 14.2439V12.0372L102.51 10.4772C102.571 10.4131 102.618 10.3376 102.649 10.2552C102.68 10.1727 102.694 10.0849 102.691 9.99693C102.688 9.9089 102.668 9.82237 102.631 9.74232C102.594 9.66226 102.542 9.59029 102.477 9.53054ZM99.7771 11.2905C99.7141 11.3523 99.664 11.4259 99.6297 11.5072C99.5954 11.5884 99.5775 11.6757 99.5771 11.7639V13.5772H97.7638C97.6756 13.5776 97.5883 13.5954 97.5071 13.6298C97.4258 13.6641 97.3522 13.7142 97.2905 13.7772L96.0038 15.0639L94.7171 13.7772C94.6554 13.7142 94.5817 13.6641 94.5005 13.6298C94.4192 13.5954 94.332 13.5776 94.2438 13.5772H92.4305V11.7639C92.4301 11.6757 92.4122 11.5884 92.3779 11.5072C92.3436 11.4259 92.2934 11.3523 92.2305 11.2905L90.9438 10.0039L92.2305 8.71721C92.2934 8.65547 92.3436 8.58184 92.3779 8.50059C92.4122 8.41934 92.4301 8.33208 92.4305 8.24388V6.43054H94.2438C94.332 6.43018 94.4192 6.41231 94.5005 6.37798C94.5817 6.34365 94.6554 6.29353 94.7171 6.23054L96.0038 4.94388L97.2905 6.23054C97.3522 6.29353 97.4258 6.34365 97.5071 6.37798C97.5883 6.41231 97.6756 6.43018 97.7638 6.43054H99.5771V8.24388C99.5775 8.33208 99.5954 8.41934 99.6297 8.50059C99.664 8.58184 99.7141 8.65547 99.7771 8.71721L101.064 10.0039L99.7771 11.2905Z" fill="#72767C"/>
<path d="M133.225 8.38741C133.17 8.27774 133.086 8.18552 132.981 8.12096C132.877 8.0564 132.756 8.02203 132.634 8.02166H129.309V4.03166C129.316 3.88581 129.275 3.74167 129.192 3.62148C129.109 3.5013 128.989 3.41175 128.85 3.36665C128.716 3.32273 128.572 3.32223 128.438 3.36524C128.305 3.40826 128.188 3.49256 128.105 3.60606L122.785 10.9211C122.718 11.0174 122.678 11.1296 122.669 11.2464C122.66 11.3632 122.681 11.4804 122.732 11.5861C122.778 11.7069 122.859 11.8116 122.964 11.8872C123.069 11.9628 123.194 12.0061 123.324 12.0117H126.649V16.0017C126.649 16.1419 126.693 16.2785 126.775 16.392C126.858 16.5054 126.974 16.59 127.107 16.6334C127.174 16.6541 127.244 16.6653 127.314 16.6667C127.418 16.6669 127.522 16.6424 127.616 16.595C127.709 16.5476 127.79 16.4787 127.852 16.394L133.172 9.07901C133.244 8.97979 133.287 8.86272 133.296 8.7407C133.306 8.61867 133.281 8.49642 133.225 8.38741ZM127.979 13.9535V11.3467C127.979 11.1703 127.908 11.0012 127.784 10.8764C127.659 10.7517 127.49 10.6817 127.314 10.6817H124.654L127.979 6.07986V8.68666C127.979 8.86303 128.049 9.03218 128.173 9.15689C128.298 9.2816 128.467 9.35166 128.644 9.35166H131.304L127.979 13.9535Z" fill="#72767C"/>
<path d="M228.64 16.218V15.14C227.725 15.0373 226.993 14.7153 226.442 14.174C225.891 13.6327 225.611 12.9233 225.602 12.046H227.17C227.179 12.4847 227.31 12.872 227.562 13.208C227.814 13.5347 228.173 13.754 228.64 13.866V10.492C228.565 10.4733 228.486 10.45 228.402 10.422C228.327 10.394 228.248 10.366 228.164 10.338C227.408 10.086 226.839 9.75933 226.456 9.358C226.083 8.95667 225.896 8.42933 225.896 7.776C225.887 7.01067 226.134 6.38533 226.638 5.9C227.142 5.41467 227.809 5.13 228.64 5.046V3.926H229.592V5.06C230.404 5.15333 231.057 5.44733 231.552 5.942C232.047 6.43667 232.299 7.05733 232.308 7.804H230.74C230.731 7.496 230.628 7.20667 230.432 6.936C230.245 6.656 229.965 6.46467 229.592 6.362V9.358C229.667 9.386 229.741 9.414 229.816 9.442C229.891 9.46067 229.965 9.484 230.04 9.512C230.525 9.67067 230.959 9.862 231.342 10.086C231.725 10.31 232.028 10.604 232.252 10.968C232.485 11.332 232.602 11.794 232.602 12.354C232.602 12.8207 232.49 13.2593 232.266 13.67C232.042 14.0713 231.706 14.4073 231.258 14.678C230.81 14.9487 230.255 15.1073 229.592 15.154V16.218H228.64ZM227.436 7.65C227.436 8.02333 227.543 8.31267 227.758 8.518C227.973 8.714 228.267 8.88667 228.64 9.036V6.32C228.285 6.38533 227.996 6.53467 227.772 6.768C227.548 6.992 227.436 7.286 227.436 7.65ZM231.034 12.452C231.034 11.9947 230.899 11.6493 230.628 11.416C230.357 11.1733 230.012 10.9727 229.592 10.814V13.894C230.049 13.838 230.404 13.6793 230.656 13.418C230.908 13.1567 231.034 12.8347 231.034 12.452ZM234.028 15V13.936C234.663 13.432 235.27 12.9233 235.848 12.41C236.427 11.8967 236.94 11.3927 237.388 10.898C237.846 10.394 238.205 9.904 238.466 9.428C238.728 8.94267 238.858 8.476 238.858 8.028C238.858 7.72933 238.807 7.44933 238.704 7.188C238.602 6.91733 238.434 6.70267 238.2 6.544C237.967 6.376 237.654 6.292 237.262 6.292C236.674 6.292 236.231 6.47867 235.932 6.852C235.643 7.22533 235.503 7.67333 235.512 8.196H234.07C234.08 7.50533 234.224 6.92667 234.504 6.46C234.794 5.99333 235.176 5.63867 235.652 5.396C236.138 5.15333 236.684 5.032 237.29 5.032C238.214 5.032 238.952 5.29333 239.502 5.816C240.062 6.32933 240.342 7.048 240.342 7.972C240.342 8.52267 240.207 9.06867 239.936 9.61C239.675 10.1513 239.33 10.674 238.9 11.178C238.48 11.6727 238.028 12.1393 237.542 12.578C237.057 13.0167 236.595 13.4133 236.156 13.768H240.636V15H234.028ZM245.417 15.168C244.773 15.168 244.222 15.042 243.765 14.79C243.307 14.538 242.948 14.202 242.687 13.782C242.435 13.362 242.281 12.9047 242.225 12.41H243.611C243.695 12.8953 243.895 13.2687 244.213 13.53C244.53 13.7913 244.936 13.922 245.431 13.922C246.112 13.922 246.672 13.6047 247.111 12.97C247.559 12.326 247.797 11.3413 247.825 10.016C247.601 10.4267 247.251 10.7767 246.775 11.066C246.308 11.3553 245.767 11.5 245.151 11.5C244.6 11.5 244.082 11.3693 243.597 11.108C243.111 10.8467 242.719 10.4827 242.421 10.016C242.122 9.54 241.973 8.98 241.973 8.336C241.973 7.76667 242.113 7.23 242.393 6.726C242.673 6.222 243.065 5.816 243.569 5.508C244.082 5.19067 244.689 5.032 245.389 5.032C246.107 5.032 246.714 5.16733 247.209 5.438C247.703 5.70867 248.1 6.068 248.399 6.516C248.697 6.964 248.912 7.468 249.043 8.028C249.183 8.588 249.253 9.162 249.253 9.75C249.253 10.8327 249.099 11.78 248.791 12.592C248.492 13.404 248.058 14.0387 247.489 14.496C246.919 14.944 246.229 15.168 245.417 15.168ZM245.487 10.226C245.879 10.226 246.229 10.1373 246.537 9.96C246.845 9.78267 247.087 9.54933 247.265 9.26C247.451 8.96133 247.545 8.63467 247.545 8.28C247.545 7.89733 247.451 7.56133 247.265 7.272C247.087 6.97333 246.84 6.74 246.523 6.572C246.215 6.404 245.865 6.32 245.473 6.32C245.081 6.32 244.731 6.404 244.423 6.572C244.115 6.74 243.867 6.97333 243.681 7.272C243.503 7.56133 243.415 7.89267 243.415 8.266C243.415 8.86333 243.611 9.33933 244.003 9.694C244.395 10.0487 244.889 10.226 245.487 10.226ZM249.645 16.442L253.145 4.206H254.601L251.087 16.442H249.645ZM255.907 15V4.92H257.391V9.176C257.624 8.77467 257.946 8.462 258.357 8.238C258.777 8.00467 259.239 7.888 259.743 7.888C260.573 7.888 261.227 8.14933 261.703 8.672C262.179 9.19467 262.417 9.974 262.417 11.01V15H260.947V11.164C260.947 9.82 260.41 9.148 259.337 9.148C258.777 9.148 258.31 9.344 257.937 9.736C257.573 10.128 257.391 10.688 257.391 11.416V15H255.907Z" fill="#72767C"/>
</svg>
