<svg width="264" height="20" viewBox="0 0 264 20" fill="none" xmlns="http://www.w3.org/2000/svg">
<path d="M4.58341 14.5833H3.33341V5.41667H9.83342L9.16675 6.08333C9.00008 6.25 8.91675 6.41667 8.91675 6.66667C8.91675 7.16667 9.25008 7.5 9.75008 7.5C10.0001 7.5 10.1667 7.41667 10.3334 7.25L12.4167 5.16667C12.7501 4.83333 12.7501 4.33333 12.4167 4L10.3334 1.91667C10.0001 1.58333 9.50008 1.58333 9.16675 1.91667C8.83342 2.25 8.83342 2.75 9.16675 3.08333L9.83342 3.75H2.50008C2.00008 3.75 1.66675 4.08333 1.66675 4.58333V15.4167C1.66675 15.9167 2.00008 16.25 2.50008 16.25H4.58341C5.08341 16.25 5.41675 15.9167 5.41675 15.4167C5.41675 14.9167 5.08341 14.5833 4.58341 14.5833ZM17.5001 3.75H15.4167C14.9167 3.75 14.5834 4.08333 14.5834 4.58333C14.5834 5.08333 14.9167 5.41667 15.4167 5.41667H16.6667V14.5833H9.66675L10.3334 13.9167C10.6667 13.5833 10.6667 13.0833 10.3334 12.75C10.0001 12.4167 9.50008 12.4167 9.16675 12.75L7.08342 14.8333C6.75008 15.1667 6.75008 15.6667 7.08342 16L9.16675 18.0833C9.33342 18.25 9.50008 18.3333 9.75008 18.3333C10.0001 18.3333 10.1667 18.25 10.3334 18.0833C10.6667 17.75 10.6667 17.25 10.3334 16.9167L9.66675 16.25H17.5001C18.0001 16.25 18.3334 15.9167 18.3334 15.4167V4.58333C18.3334 4.08333 18.0001 3.75 17.5001 3.75Z" fill="#72767C"/>
<path d="M36.798 15V13.936C37.4327 13.432 38.0393 12.9233 38.618 12.41C39.1967 11.8967 39.71 11.3927 40.158 10.898C40.6153 10.394 40.9747 9.904 41.236 9.428C41.4973 8.94267 41.628 8.476 41.628 8.028C41.628 7.72933 41.5767 7.44933 41.474 7.188C41.3713 6.91733 41.2033 6.70267 40.97 6.544C40.7367 6.376 40.424 6.292 40.032 6.292C39.444 6.292 39.0007 6.47867 38.702 6.852C38.4127 7.22533 38.2727 7.67333 38.282 8.196H36.84C36.8493 7.50533 36.994 6.92667 37.274 6.46C37.5633 5.99333 37.946 5.63867 38.422 5.396C38.9073 5.15333 39.4533 5.032 40.06 5.032C40.984 5.032 41.7213 5.29333 42.272 5.816C42.832 6.32933 43.112 7.048 43.112 7.972C43.112 8.52267 42.9767 9.06867 42.706 9.61C42.4447 10.1513 42.0993 10.674 41.67 11.178C41.25 11.6727 40.7973 12.1393 40.312 12.578C39.8267 13.0167 39.3647 13.4133 38.926 13.768H43.406V15H36.798ZM48.1417 15.168C47.5071 15.168 46.9284 15.056 46.4057 14.832C45.8924 14.5987 45.4817 14.2487 45.1737 13.782C44.8657 13.3153 44.7024 12.732 44.6837 12.032H46.1537C46.1724 12.5547 46.3497 12.998 46.6857 13.362C47.0311 13.7167 47.5164 13.894 48.1417 13.894C48.7391 13.894 49.1964 13.7307 49.5137 13.404C49.8311 13.068 49.9897 12.6527 49.9897 12.158C49.9897 11.5607 49.7751 11.1173 49.3457 10.828C48.9257 10.5387 48.4077 10.394 47.7917 10.394H47.0637V9.162H47.8057C48.3564 9.162 48.7997 9.03133 49.1357 8.77C49.4811 8.50867 49.6537 8.14 49.6537 7.664C49.6537 7.26267 49.5184 6.936 49.2477 6.684C48.9864 6.432 48.6131 6.306 48.1277 6.306C47.6237 6.306 47.2271 6.45533 46.9377 6.754C46.6484 7.04333 46.4897 7.40733 46.4617 7.846H44.9917C45.0104 7.27667 45.1504 6.782 45.4117 6.362C45.6824 5.942 46.0511 5.61533 46.5177 5.382C46.9844 5.14867 47.5211 5.032 48.1277 5.032C48.7811 5.032 49.3271 5.14867 49.7657 5.382C50.2137 5.606 50.5497 5.914 50.7737 6.306C51.0071 6.68867 51.1237 7.10867 51.1237 7.566C51.1237 8.08867 50.9791 8.546 50.6897 8.938C50.4004 9.33 50.0131 9.59133 49.5277 9.722C50.0877 9.84333 50.5497 10.1187 50.9137 10.548C51.2777 10.968 51.4597 11.514 51.4597 12.186C51.4597 12.7273 51.3337 13.2267 51.0817 13.684C50.8297 14.132 50.4564 14.4913 49.9617 14.762C49.4671 15.0327 48.8604 15.168 48.1417 15.168ZM53.0949 15V13.936C53.7295 13.432 54.3362 12.9233 54.9149 12.41C55.4935 11.8967 56.0069 11.3927 56.4549 10.898C56.9122 10.394 57.2715 9.904 57.5329 9.428C57.7942 8.94267 57.9249 8.476 57.9249 8.028C57.9249 7.72933 57.8735 7.44933 57.7709 7.188C57.6682 6.91733 57.5002 6.70267 57.2669 6.544C57.0335 6.376 56.7209 6.292 56.3289 6.292C55.7409 6.292 55.2975 6.47867 54.9989 6.852C54.7095 7.22533 54.5695 7.67333 54.5789 8.196H53.1369C53.1462 7.50533 53.2909 6.92667 53.5709 6.46C53.8602 5.99333 54.2429 5.63867 54.7189 5.396C55.2042 5.15333 55.7502 5.032 56.3569 5.032C57.2809 5.032 58.0182 5.29333 58.5689 5.816C59.1289 6.32933 59.4089 7.048 59.4089 7.972C59.4089 8.52267 59.2735 9.06867 59.0029 9.61C58.7415 10.1513 58.3962 10.674 57.9669 11.178C57.5469 11.6727 57.0942 12.1393 56.6089 12.578C56.1235 13.0167 55.6615 13.4133 55.2229 13.768H59.7029V15H53.0949ZM61.3026 15V5.2H62.7866V9.4L66.6506 5.2H68.4846L64.8586 9.106L68.5686 15H66.7626L63.7946 10.24L62.7866 11.332V15H61.3026Z" fill="#72767C"/>
<path d="M94.3372 9.3372H93.6706V8.67053C93.6706 8.49372 93.6003 8.32415 93.4753 8.19913C93.3503 8.0741 93.1807 8.00387 93.0039 8.00387C92.8271 8.00387 92.6575 8.0741 92.5325 8.19913C92.4075 8.32415 92.3372 8.49372 92.3372 8.67053V9.3372H91.6706C91.4938 9.3372 91.3242 9.40744 91.1992 9.53246C91.0741 9.65749 91.0039 9.82706 91.0039 10.0039C91.0039 10.1807 91.0741 10.3502 91.1992 10.4753C91.3242 10.6003 91.4938 10.6705 91.6706 10.6705H92.3372V11.3372C92.3372 11.514 92.4075 11.6836 92.5325 11.8086C92.6575 11.9336 92.8271 12.0039 93.0039 12.0039C93.1807 12.0039 93.3503 11.9336 93.4753 11.8086C93.6003 11.6836 93.6706 11.514 93.6706 11.3372V10.6705H94.3372C94.5141 10.6705 94.6836 10.6003 94.8086 10.4753C94.9337 10.3502 95.0039 10.1807 95.0039 10.0039C95.0039 9.82706 94.9337 9.65749 94.8086 9.53246C94.6836 9.40744 94.5141 9.3372 94.3372 9.3372ZM99.4772 9.53053L97.9106 8.00387V5.76387C97.9106 5.58706 97.8403 5.41749 97.7153 5.29246C97.5903 5.16744 97.4207 5.0972 97.2439 5.0972H95.0372L93.4772 3.53053C93.4153 3.46805 93.3415 3.41845 93.2603 3.38461C93.1791 3.35076 93.0919 3.33333 93.0039 3.33333C92.9159 3.33333 92.8288 3.35076 92.7475 3.38461C92.6663 3.41845 92.5925 3.46805 92.5306 3.53053L91.0039 5.0972H88.7639C88.5871 5.0972 88.4175 5.16744 88.2925 5.29246C88.1675 5.41749 88.0972 5.58706 88.0972 5.76387V8.00387L86.5306 9.53053C86.4681 9.59251 86.4185 9.66624 86.3846 9.74748C86.3508 9.82872 86.3334 9.91586 86.3334 10.0039C86.3334 10.0919 86.3508 10.179 86.3846 10.2603C86.4185 10.3415 86.4681 10.4152 86.5306 10.4772L88.0972 12.0372V14.2439C88.0972 14.4207 88.1675 14.5902 88.2925 14.7153C88.4175 14.8403 88.5871 14.9105 88.7639 14.9105H91.0039L92.5639 16.4772C92.6259 16.5397 92.6996 16.5893 92.7809 16.6231C92.8621 16.657 92.9492 16.6744 93.0372 16.6744C93.1252 16.6744 93.2124 16.657 93.2936 16.6231C93.3749 16.5893 93.4486 16.5397 93.5106 16.4772L95.0706 14.9105H97.2772C97.4541 14.9105 97.6236 14.8403 97.7486 14.7153C97.8737 14.5902 97.9439 14.4207 97.9439 14.2439V12.0372L99.5106 10.4772C99.5709 10.4131 99.618 10.3376 99.649 10.2551C99.68 10.1727 99.6944 10.0849 99.6913 9.99692C99.6882 9.90889 99.6677 9.82236 99.6309 9.74231C99.5942 9.66226 99.542 9.59028 99.4772 9.53053ZM96.7772 11.2905C96.7142 11.3523 96.6641 11.4259 96.6298 11.5072C96.5955 11.5884 96.5776 11.6757 96.5772 11.7639V13.5772H94.7639C94.6757 13.5776 94.5884 13.5954 94.5072 13.6298C94.4259 13.6641 94.3523 13.7142 94.2906 13.7772L93.0039 15.0639L91.7172 13.7772C91.6555 13.7142 91.5819 13.6641 91.5006 13.6298C91.4194 13.5954 91.3321 13.5776 91.2439 13.5772H89.4306V11.7639C89.4302 11.6757 89.4123 11.5884 89.378 11.5072C89.3437 11.4259 89.2936 11.3523 89.2306 11.2905L87.9439 10.0039L89.2306 8.7172C89.2936 8.65546 89.3437 8.58183 89.378 8.50058C89.4123 8.41933 89.4302 8.33207 89.4306 8.24387V6.43053H91.2439C91.3321 6.43017 91.4194 6.4123 91.5006 6.37797C91.5819 6.34364 91.6555 6.29353 91.7172 6.23053L93.0039 4.94387L94.2906 6.23053C94.3523 6.29353 94.4259 6.34364 94.5072 6.37797C94.5884 6.4123 94.6757 6.43017 94.7639 6.43053H96.5772V8.24387C96.5776 8.33207 96.5955 8.41933 96.6298 8.50058C96.6641 8.58183 96.7142 8.65546 96.7772 8.7172L98.0639 10.0039L96.7772 11.2905Z" fill="#72767C"/>
<path d="M130.225 8.3874C130.17 8.27773 130.085 8.18551 129.981 8.12095C129.877 8.05639 129.756 8.02202 129.633 8.02165H126.308V4.03165C126.316 3.8858 126.274 3.74166 126.192 3.62147C126.109 3.50129 125.988 3.41174 125.85 3.36665C125.716 3.32272 125.572 3.32222 125.438 3.36524C125.304 3.40825 125.188 3.49255 125.105 3.60605L119.785 10.9211C119.718 11.0174 119.678 11.1296 119.669 11.2464C119.659 11.3632 119.681 11.4803 119.732 11.5861C119.778 11.7069 119.859 11.8116 119.964 11.8872C120.069 11.9628 120.194 12.006 120.323 12.0117H123.648V16.0017C123.649 16.1419 123.693 16.2785 123.775 16.392C123.858 16.5054 123.974 16.5899 124.107 16.6334C124.174 16.6541 124.243 16.6653 124.313 16.6667C124.418 16.6669 124.522 16.6424 124.615 16.595C124.709 16.5476 124.79 16.4787 124.852 16.394L130.172 9.079C130.244 8.97978 130.287 8.86271 130.296 8.74069C130.305 8.61866 130.281 8.49641 130.225 8.3874ZM124.978 13.9535V11.3467C124.978 11.1703 124.908 11.0011 124.784 10.8764C124.659 10.7517 124.49 10.6817 124.313 10.6817H121.653L124.978 6.07985V8.68665C124.978 8.86302 125.048 9.03217 125.173 9.15688C125.298 9.28159 125.467 9.35165 125.643 9.35165H128.303L124.978 13.9535Z" fill="#72767C"/>
<path d="M228.64 16.218V15.14C227.725 15.0373 226.993 14.7153 226.442 14.174C225.891 13.6327 225.611 12.9233 225.602 12.046H227.17C227.179 12.4847 227.31 12.872 227.562 13.208C227.814 13.5347 228.173 13.754 228.64 13.866V10.492C228.565 10.4733 228.486 10.45 228.402 10.422C228.327 10.394 228.248 10.366 228.164 10.338C227.408 10.086 226.839 9.75933 226.456 9.358C226.083 8.95667 225.896 8.42933 225.896 7.776C225.887 7.01067 226.134 6.38533 226.638 5.9C227.142 5.41467 227.809 5.13 228.64 5.046V3.926H229.592V5.06C230.404 5.15333 231.057 5.44733 231.552 5.942C232.047 6.43667 232.299 7.05733 232.308 7.804H230.74C230.731 7.496 230.628 7.20667 230.432 6.936C230.245 6.656 229.965 6.46467 229.592 6.362V9.358C229.667 9.386 229.741 9.414 229.816 9.442C229.891 9.46067 229.965 9.484 230.04 9.512C230.525 9.67067 230.959 9.862 231.342 10.086C231.725 10.31 232.028 10.604 232.252 10.968C232.485 11.332 232.602 11.794 232.602 12.354C232.602 12.8207 232.49 13.2593 232.266 13.67C232.042 14.0713 231.706 14.4073 231.258 14.678C230.81 14.9487 230.255 15.1073 229.592 15.154V16.218H228.64ZM227.436 7.65C227.436 8.02333 227.543 8.31267 227.758 8.518C227.973 8.714 228.267 8.88667 228.64 9.036V6.32C228.285 6.38533 227.996 6.53467 227.772 6.768C227.548 6.992 227.436 7.286 227.436 7.65ZM231.034 12.452C231.034 11.9947 230.899 11.6493 230.628 11.416C230.357 11.1733 230.012 10.9727 229.592 10.814V13.894C230.049 13.838 230.404 13.6793 230.656 13.418C230.908 13.1567 231.034 12.8347 231.034 12.452ZM238.69 15V13.04H233.776V11.864L238.452 5.2H240.16V11.752H241.532V13.04H240.16V15H238.69ZM235.386 11.752H238.774V6.838L235.386 11.752ZM242.751 15V13.936C243.386 13.432 243.992 12.9233 244.571 12.41C245.15 11.8967 245.663 11.3927 246.111 10.898C246.568 10.394 246.928 9.904 247.189 9.428C247.45 8.94267 247.581 8.476 247.581 8.028C247.581 7.72933 247.53 7.44933 247.427 7.188C247.324 6.91733 247.156 6.70267 246.923 6.544C246.69 6.376 246.377 6.292 245.985 6.292C245.397 6.292 244.954 6.47867 244.655 6.852C244.366 7.22533 244.226 7.67333 244.235 8.196H242.793C242.802 7.50533 242.947 6.92667 243.227 6.46C243.516 5.99333 243.899 5.63867 244.375 5.396C244.86 5.15333 245.406 5.032 246.013 5.032C246.937 5.032 247.674 5.29333 248.225 5.816C248.785 6.32933 249.065 7.048 249.065 7.972C249.065 8.52267 248.93 9.06867 248.659 9.61C248.398 10.1513 248.052 10.674 247.623 11.178C247.203 11.6727 246.75 12.1393 246.265 12.578C245.78 13.0167 245.318 13.4133 244.879 13.768H249.359V15H242.751ZM250.329 16.442L253.829 4.206H255.285L251.771 16.442H250.329ZM256.59 15V4.92H258.074V9.176C258.308 8.77467 258.63 8.462 259.04 8.238C259.46 8.00467 259.922 7.888 260.426 7.888C261.257 7.888 261.91 8.14933 262.386 8.672C262.862 9.19467 263.1 9.974 263.1 11.01V15H261.63V11.164C261.63 9.82 261.094 9.148 260.02 9.148C259.46 9.148 258.994 9.344 258.62 9.736C258.256 10.128 258.074 10.688 258.074 11.416V15H256.59Z" fill="#72767C"/>
</svg>
