<svg width="264" height="20" viewBox="0 0 264 20" fill="none" xmlns="http://www.w3.org/2000/svg">
<path d="M4.58341 14.5833H3.33341V5.41667H9.83342L9.16675 6.08333C9.00008 6.25 8.91675 6.41667 8.91675 6.66667C8.91675 7.16667 9.25008 7.5 9.75008 7.5C10.0001 7.5 10.1667 7.41667 10.3334 7.25L12.4167 5.16667C12.7501 4.83333 12.7501 4.33333 12.4167 4L10.3334 1.91667C10.0001 1.58333 9.50008 1.58333 9.16675 1.91667C8.83342 2.25 8.83342 2.75 9.16675 3.08333L9.83342 3.75H2.50008C2.00008 3.75 1.66675 4.08333 1.66675 4.58333V15.4167C1.66675 15.9167 2.00008 16.25 2.50008 16.25H4.58341C5.08341 16.25 5.41675 15.9167 5.41675 15.4167C5.41675 14.9167 5.08341 14.5833 4.58341 14.5833ZM17.5001 3.75H15.4167C14.9167 3.75 14.5834 4.08333 14.5834 4.58333C14.5834 5.08333 14.9167 5.41667 15.4167 5.41667H16.6667V14.5833H9.66675L10.3334 13.9167C10.6667 13.5833 10.6667 13.0833 10.3334 12.75C10.0001 12.4167 9.50008 12.4167 9.16675 12.75L7.08342 14.8333C6.75008 15.1667 6.75008 15.6667 7.08342 16L9.16675 18.0833C9.33342 18.25 9.50008 18.3333 9.75008 18.3333C10.0001 18.3333 10.1667 18.25 10.3334 18.0833C10.6667 17.75 10.6667 17.25 10.3334 16.9167L9.66675 16.25H17.5001C18.0001 16.25 18.3334 15.9167 18.3334 15.4167V4.58333C18.3334 4.08333 18.0001 3.75 17.5001 3.75Z" fill="#72767C"/>
<path d="M38.002 15V6.88L36.42 7.244V6.152L38.59 5.2H39.542V15H38.002ZM44.6691 15.168C44.0344 15.168 43.4557 15.056 42.9331 14.832C42.4197 14.5987 42.0091 14.2487 41.7011 13.782C41.3931 13.3153 41.2297 12.732 41.2111 12.032H42.6811C42.6997 12.5547 42.8771 12.998 43.2131 13.362C43.5584 13.7167 44.0437 13.894 44.6691 13.894C45.2664 13.894 45.7237 13.7307 46.0411 13.404C46.3584 13.068 46.5171 12.6527 46.5171 12.158C46.5171 11.5607 46.3024 11.1173 45.8731 10.828C45.4531 10.5387 44.9351 10.394 44.3191 10.394H43.5911V9.162H44.3331C44.8837 9.162 45.3271 9.03133 45.6631 8.77C46.0084 8.50867 46.1811 8.14 46.1811 7.664C46.1811 7.26267 46.0457 6.936 45.7751 6.684C45.5137 6.432 45.1404 6.306 44.6551 6.306C44.1511 6.306 43.7544 6.45533 43.4651 6.754C43.1757 7.04333 43.0171 7.40733 42.9891 7.846H41.5191C41.5377 7.27667 41.6777 6.782 41.9391 6.362C42.2097 5.942 42.5784 5.61533 43.0451 5.382C43.5117 5.14867 44.0484 5.032 44.6551 5.032C45.3084 5.032 45.8544 5.14867 46.2931 5.382C46.7411 5.606 47.0771 5.914 47.3011 6.306C47.5344 6.68867 47.6511 7.10867 47.6511 7.566C47.6511 8.08867 47.5064 8.546 47.2171 8.938C46.9277 9.33 46.5404 9.59133 46.0551 9.722C46.6151 9.84333 47.0771 10.1187 47.4411 10.548C47.8051 10.968 47.9871 11.514 47.9871 12.186C47.9871 12.7273 47.8611 13.2267 47.6091 13.684C47.3571 14.132 46.9837 14.4913 46.4891 14.762C45.9944 15.0327 45.3877 15.168 44.6691 15.168ZM49.6222 15V13.936C50.2569 13.432 50.8636 12.9233 51.4422 12.41C52.0209 11.8967 52.5342 11.3927 52.9822 10.898C53.4396 10.394 53.7989 9.904 54.0602 9.428C54.3216 8.94267 54.4522 8.476 54.4522 8.028C54.4522 7.72933 54.4009 7.44933 54.2982 7.188C54.1956 6.91733 54.0276 6.70267 53.7942 6.544C53.5609 6.376 53.2482 6.292 52.8562 6.292C52.2682 6.292 51.8249 6.47867 51.5262 6.852C51.2369 7.22533 51.0969 7.67333 51.1062 8.196H49.6642C49.6736 7.50533 49.8182 6.92667 50.0982 6.46C50.3876 5.99333 50.7702 5.63867 51.2462 5.396C51.7316 5.15333 52.2776 5.032 52.8842 5.032C53.8082 5.032 54.5456 5.29333 55.0962 5.816C55.6562 6.32933 55.9362 7.048 55.9362 7.972C55.9362 8.52267 55.8009 9.06867 55.5302 9.61C55.2689 10.1513 54.9236 10.674 54.4942 11.178C54.0742 11.6727 53.6216 12.1393 53.1362 12.578C52.6509 13.0167 52.1889 13.4133 51.7502 13.768H56.2302V15H49.6222ZM57.8299 15V5.2H59.3139V9.4L63.1779 5.2H65.0119L61.3859 9.106L65.0959 15H63.2899L60.3219 10.24L59.3139 11.332V15H57.8299Z" fill="#72767C"/>
<path d="M91.3371 9.3372H90.6705V8.67053C90.6705 8.49372 90.6002 8.32415 90.4752 8.19913C90.3502 8.0741 90.1806 8.00387 90.0038 8.00387C89.827 8.00387 89.6574 8.0741 89.5324 8.19913C89.4074 8.32415 89.3371 8.49372 89.3371 8.67053V9.3372H88.6705C88.4936 9.3372 88.3241 9.40744 88.199 9.53246C88.074 9.65749 88.0038 9.82706 88.0038 10.0039C88.0038 10.1807 88.074 10.3502 88.199 10.4753C88.3241 10.6003 88.4936 10.6705 88.6705 10.6705H89.3371V11.3372C89.3371 11.514 89.4074 11.6836 89.5324 11.8086C89.6574 11.9336 89.827 12.0039 90.0038 12.0039C90.1806 12.0039 90.3502 11.9336 90.4752 11.8086C90.6002 11.6836 90.6705 11.514 90.6705 11.3372V10.6705H91.3371C91.5139 10.6705 91.6835 10.6003 91.8085 10.4753C91.9335 10.3502 92.0038 10.1807 92.0038 10.0039C92.0038 9.82706 91.9335 9.65749 91.8085 9.53246C91.6835 9.40744 91.5139 9.3372 91.3371 9.3372ZM96.4771 9.53053L94.9105 8.00387V5.76387C94.9105 5.58706 94.8402 5.41749 94.7152 5.29246C94.5902 5.16744 94.4206 5.0972 94.2438 5.0972H92.0371L90.4771 3.53053C90.4151 3.46805 90.3414 3.41845 90.2602 3.38461C90.1789 3.35076 90.0918 3.33333 90.0038 3.33333C89.9158 3.33333 89.8286 3.35076 89.7474 3.38461C89.6662 3.41845 89.5924 3.46805 89.5305 3.53053L88.0038 5.0972H85.7638C85.587 5.0972 85.4174 5.16744 85.2924 5.29246C85.1674 5.41749 85.0971 5.58706 85.0971 5.76387V8.00387L83.5305 9.53053C83.468 9.59251 83.4184 9.66624 83.3845 9.74748C83.3507 9.82872 83.3333 9.91586 83.3333 10.0039C83.3333 10.0919 83.3507 10.179 83.3845 10.2603C83.4184 10.3415 83.468 10.4152 83.5305 10.4772L85.0971 12.0372V14.2439C85.0971 14.4207 85.1674 14.5902 85.2924 14.7153C85.4174 14.8403 85.587 14.9105 85.7638 14.9105H88.0038L89.5638 16.4772C89.6258 16.5397 89.6995 16.5893 89.7807 16.6231C89.862 16.657 89.9491 16.6744 90.0371 16.6744C90.1251 16.6744 90.2123 16.657 90.2935 16.6231C90.3747 16.5893 90.4485 16.5397 90.5105 16.4772L92.0705 14.9105H94.2771C94.4539 14.9105 94.6235 14.8403 94.7485 14.7153C94.8735 14.5902 94.9438 14.4207 94.9438 14.2439V12.0372L96.5105 10.4772C96.5708 10.4131 96.6179 10.3376 96.6489 10.2551C96.6799 10.1727 96.6943 10.0849 96.6912 9.99692C96.6881 9.90889 96.6675 9.82236 96.6308 9.74231C96.5941 9.66226 96.5418 9.59028 96.4771 9.53053ZM93.7771 11.2905C93.7141 11.3523 93.664 11.4259 93.6297 11.5072C93.5954 11.5884 93.5775 11.6757 93.5771 11.7639V13.5772H91.7638C91.6756 13.5776 91.5883 13.5954 91.5071 13.6298C91.4258 13.6641 91.3522 13.7142 91.2905 13.7772L90.0038 15.0639L88.7171 13.7772C88.6554 13.7142 88.5817 13.6641 88.5005 13.6298C88.4192 13.5954 88.332 13.5776 88.2438 13.5772H86.4305V11.7639C86.4301 11.6757 86.4122 11.5884 86.3779 11.5072C86.3436 11.4259 86.2934 11.3523 86.2305 11.2905L84.9438 10.0039L86.2305 8.7172C86.2934 8.65546 86.3436 8.58183 86.3779 8.50058C86.4122 8.41933 86.4301 8.33207 86.4305 8.24387V6.43053H88.2438C88.332 6.43017 88.4192 6.4123 88.5005 6.37797C88.5817 6.34364 88.6554 6.29353 88.7171 6.23053L90.0038 4.94387L91.2905 6.23053C91.3522 6.29353 91.4258 6.34364 91.5071 6.37797C91.5883 6.4123 91.6756 6.43017 91.7638 6.43053H93.5771V8.24387C93.5775 8.33207 93.5954 8.41933 93.6297 8.50058C93.664 8.58183 93.7141 8.65546 93.7771 8.7172L95.0638 10.0039L93.7771 11.2905Z" fill="#72767C"/>
<path d="M127.225 8.3874C127.17 8.27773 127.086 8.18551 126.981 8.12095C126.877 8.05639 126.756 8.02202 126.634 8.02165H123.309V4.03165C123.316 3.8858 123.275 3.74166 123.192 3.62147C123.109 3.50129 122.989 3.41174 122.85 3.36665C122.716 3.32272 122.572 3.32222 122.438 3.36524C122.305 3.40825 122.188 3.49255 122.105 3.60605L116.785 10.9211C116.718 11.0174 116.678 11.1296 116.669 11.2464C116.66 11.3632 116.681 11.4803 116.732 11.5861C116.778 11.7069 116.859 11.8116 116.964 11.8872C117.069 11.9628 117.194 12.006 117.324 12.0117H120.649V16.0017C120.649 16.1419 120.693 16.2785 120.775 16.392C120.858 16.5054 120.974 16.5899 121.107 16.6334C121.174 16.6541 121.244 16.6653 121.314 16.6667C121.418 16.6669 121.522 16.6424 121.616 16.595C121.709 16.5476 121.79 16.4787 121.852 16.394L127.172 9.079C127.244 8.97978 127.287 8.86271 127.296 8.74069C127.306 8.61866 127.281 8.49641 127.225 8.3874ZM121.979 13.9535V11.3467C121.979 11.1703 121.908 11.0011 121.784 10.8764C121.659 10.7517 121.49 10.6817 121.314 10.6817H118.654L121.979 6.07985V8.68665C121.979 8.86302 122.049 9.03217 122.173 9.15688C122.298 9.28159 122.467 9.35165 122.644 9.35165H125.304L121.979 13.9535Z" fill="#72767C"/>
<path d="M228.64 16.218V15.14C227.725 15.0373 226.993 14.7153 226.442 14.174C225.891 13.6327 225.611 12.9233 225.602 12.046H227.17C227.179 12.4847 227.31 12.872 227.562 13.208C227.814 13.5347 228.173 13.754 228.64 13.866V10.492C228.565 10.4733 228.486 10.45 228.402 10.422C228.327 10.394 228.248 10.366 228.164 10.338C227.408 10.086 226.839 9.75933 226.456 9.358C226.083 8.95667 225.896 8.42933 225.896 7.776C225.887 7.01067 226.134 6.38533 226.638 5.9C227.142 5.41467 227.809 5.13 228.64 5.046V3.926H229.592V5.06C230.404 5.15333 231.057 5.44733 231.552 5.942C232.047 6.43667 232.299 7.05733 232.308 7.804H230.74C230.731 7.496 230.628 7.20667 230.432 6.936C230.245 6.656 229.965 6.46467 229.592 6.362V9.358C229.667 9.386 229.741 9.414 229.816 9.442C229.891 9.46067 229.965 9.484 230.04 9.512C230.525 9.67067 230.959 9.862 231.342 10.086C231.725 10.31 232.028 10.604 232.252 10.968C232.485 11.332 232.602 11.794 232.602 12.354C232.602 12.8207 232.49 13.2593 232.266 13.67C232.042 14.0713 231.706 14.4073 231.258 14.678C230.81 14.9487 230.255 15.1073 229.592 15.154V16.218H228.64ZM227.436 7.65C227.436 8.02333 227.543 8.31267 227.758 8.518C227.973 8.714 228.267 8.88667 228.64 9.036V6.32C228.285 6.38533 227.996 6.53467 227.772 6.768C227.548 6.992 227.436 7.286 227.436 7.65ZM231.034 12.452C231.034 11.9947 230.899 11.6493 230.628 11.416C230.357 11.1733 230.012 10.9727 229.592 10.814V13.894C230.049 13.838 230.404 13.6793 230.656 13.418C230.908 13.1567 231.034 12.8347 231.034 12.452ZM237.36 15.168C236.726 15.168 236.147 15.056 235.624 14.832C235.111 14.5987 234.7 14.2487 234.392 13.782C234.084 13.3153 233.921 12.732 233.902 12.032H235.372C235.391 12.5547 235.568 12.998 235.904 13.362C236.25 13.7167 236.735 13.894 237.36 13.894C237.958 13.894 238.415 13.7307 238.732 13.404C239.05 13.068 239.208 12.6527 239.208 12.158C239.208 11.5607 238.994 11.1173 238.564 10.828C238.144 10.5387 237.626 10.394 237.01 10.394H236.282V9.162H237.024C237.575 9.162 238.018 9.03133 238.354 8.77C238.7 8.50867 238.872 8.14 238.872 7.664C238.872 7.26267 238.737 6.936 238.466 6.684C238.205 6.432 237.832 6.306 237.346 6.306C236.842 6.306 236.446 6.45533 236.156 6.754C235.867 7.04333 235.708 7.40733 235.68 7.846H234.21C234.229 7.27667 234.369 6.782 234.63 6.362C234.901 5.942 235.27 5.61533 235.736 5.382C236.203 5.14867 236.74 5.032 237.346 5.032C238 5.032 238.546 5.14867 238.984 5.382C239.432 5.606 239.768 5.914 239.992 6.306C240.226 6.68867 240.342 7.10867 240.342 7.566C240.342 8.08867 240.198 8.546 239.908 8.938C239.619 9.33 239.232 9.59133 238.746 9.722C239.306 9.84333 239.768 10.1187 240.132 10.548C240.496 10.968 240.678 11.514 240.678 12.186C240.678 12.7273 240.552 13.2267 240.3 13.684C240.048 14.132 239.675 14.4913 239.18 14.762C238.686 15.0327 238.079 15.168 237.36 15.168ZM242.314 15V13.936C242.948 13.432 243.555 12.9233 244.134 12.41C244.712 11.8967 245.226 11.3927 245.674 10.898C246.131 10.394 246.49 9.904 246.752 9.428C247.013 8.94267 247.144 8.476 247.144 8.028C247.144 7.72933 247.092 7.44933 246.99 7.188C246.887 6.91733 246.719 6.70267 246.486 6.544C246.252 6.376 245.94 6.292 245.548 6.292C244.96 6.292 244.516 6.47867 244.218 6.852C243.928 7.22533 243.788 7.67333 243.798 8.196H242.356C242.365 7.50533 242.51 6.92667 242.79 6.46C243.079 5.99333 243.462 5.63867 243.938 5.396C244.423 5.15333 244.969 5.032 245.576 5.032C246.5 5.032 247.237 5.29333 247.788 5.816C248.348 6.32933 248.628 7.048 248.628 7.972C248.628 8.52267 248.492 9.06867 248.222 9.61C247.96 10.1513 247.615 10.674 247.186 11.178C246.766 11.6727 246.313 12.1393 245.828 12.578C245.342 13.0167 244.88 13.4133 244.442 13.768H248.922V15H242.314ZM249.891 16.442L253.391 4.206H254.847L251.333 16.442H249.891ZM256.153 15V4.92H257.637V9.176C257.87 8.77467 258.192 8.462 258.603 8.238C259.023 8.00467 259.485 7.888 259.989 7.888C260.82 7.888 261.473 8.14933 261.949 8.672C262.425 9.19467 262.663 9.974 262.663 11.01V15H261.193V11.164C261.193 9.82 260.656 9.148 259.583 9.148C259.023 9.148 258.556 9.344 258.183 9.736C257.819 10.128 257.637 10.688 257.637 11.416V15H256.153Z" fill="#72767C"/>
</svg>
