<svg width="264" height="20" viewBox="0 0 264 20" fill="none" xmlns="http://www.w3.org/2000/svg">
<path d="M4.58341 14.5833H3.33341V5.41666H9.83342L9.16675 6.08332C9.00008 6.24999 8.91675 6.41666 8.91675 6.66666C8.91675 7.16666 9.25008 7.49999 9.75008 7.49999C10.0001 7.49999 10.1667 7.41666 10.3334 7.24999L12.4167 5.16666C12.7501 4.83332 12.7501 4.33332 12.4167 3.99999L10.3334 1.91666C10.0001 1.58332 9.50008 1.58332 9.16675 1.91666C8.83342 2.24999 8.83342 2.74999 9.16675 3.08332L9.83342 3.74999H2.50008C2.00008 3.74999 1.66675 4.08332 1.66675 4.58332V15.4167C1.66675 15.9167 2.00008 16.25 2.50008 16.25H4.58341C5.08341 16.25 5.41675 15.9167 5.41675 15.4167C5.41675 14.9167 5.08341 14.5833 4.58341 14.5833ZM17.5001 3.74999H15.4167C14.9167 3.74999 14.5834 4.08332 14.5834 4.58332C14.5834 5.08332 14.9167 5.41666 15.4167 5.41666H16.6667V14.5833H9.66675L10.3334 13.9167C10.6667 13.5833 10.6667 13.0833 10.3334 12.75C10.0001 12.4167 9.50008 12.4167 9.16675 12.75L7.08342 14.8333C6.75008 15.1667 6.75008 15.6667 7.08342 16L9.16675 18.0833C9.33342 18.25 9.50008 18.3333 9.75008 18.3333C10.0001 18.3333 10.1667 18.25 10.3334 18.0833C10.6667 17.75 10.6667 17.25 10.3334 16.9167L9.66675 16.25H17.5001C18.0001 16.25 18.3334 15.9167 18.3334 15.4167V4.58332C18.3334 4.08332 18.0001 3.74999 17.5001 3.74999Z" fill="#72767C"/>
<path d="M37.68 15L41.474 6.474H36.378V5.2H43V6.278L39.234 15H37.68ZM47.8108 15.168C47.0921 15.168 46.4854 15.0327 45.9908 14.762C45.4961 14.4913 45.0948 14.132 44.7868 13.684C44.4881 13.236 44.2734 12.732 44.1427 12.172C44.0121 11.612 43.9468 11.038 43.9468 10.45C43.9468 9.36733 44.0961 8.42 44.3948 7.608C44.7028 6.796 45.1414 6.166 45.7108 5.718C46.2801 5.26067 46.9708 5.032 47.7828 5.032C48.4268 5.032 48.9774 5.158 49.4348 5.41C49.8921 5.662 50.2468 5.998 50.4988 6.418C50.7601 6.838 50.9188 7.29533 50.9748 7.79H49.5888C49.5048 7.30467 49.3041 6.93133 48.9868 6.67C48.6694 6.40867 48.2634 6.278 47.7688 6.278C47.0874 6.278 46.5228 6.6 46.0748 7.244C45.6361 7.87867 45.4028 8.85867 45.3748 10.184C45.5988 9.77333 45.9441 9.42333 46.4108 9.134C46.8868 8.84467 47.4328 8.7 48.0488 8.7C48.5994 8.7 49.1128 8.83067 49.5888 9.092C50.0741 9.35333 50.4661 9.722 50.7648 10.198C51.0728 10.6647 51.2268 11.22 51.2268 11.864C51.2268 12.4333 51.0868 12.97 50.8068 13.474C50.5268 13.978 50.1301 14.3887 49.6168 14.706C49.1128 15.014 48.5108 15.168 47.8108 15.168ZM47.7268 13.88C48.1188 13.88 48.4688 13.796 48.7768 13.628C49.0848 13.46 49.3274 13.2313 49.5048 12.942C49.6821 12.6433 49.7708 12.3073 49.7708 11.934C49.7708 11.3367 49.5748 10.8607 49.1828 10.506C48.8001 10.1513 48.3101 9.974 47.7128 9.974C47.3208 9.974 46.9661 10.0627 46.6488 10.24C46.3408 10.4173 46.0981 10.6553 45.9208 10.954C45.7434 11.2433 45.6548 11.5653 45.6548 11.92C45.6548 12.3027 45.7434 12.6433 45.9208 12.942C46.1074 13.2313 46.3548 13.46 46.6628 13.628C46.9801 13.796 47.3348 13.88 47.7268 13.88ZM56.075 15.168C55.431 15.168 54.8803 15.042 54.423 14.79C53.9657 14.538 53.6063 14.202 53.345 13.782C53.093 13.362 52.939 12.9047 52.883 12.41H54.269C54.353 12.8953 54.5537 13.2687 54.871 13.53C55.1883 13.7913 55.5943 13.922 56.089 13.922C56.7703 13.922 57.3303 13.6047 57.769 12.97C58.217 12.326 58.455 11.3413 58.483 10.016C58.259 10.4267 57.909 10.7767 57.433 11.066C56.9663 11.3553 56.425 11.5 55.809 11.5C55.2583 11.5 54.7403 11.3693 54.255 11.108C53.7697 10.8467 53.3777 10.4827 53.079 10.016C52.7803 9.54 52.631 8.98 52.631 8.336C52.631 7.76667 52.771 7.23 53.051 6.726C53.331 6.222 53.723 5.816 54.227 5.508C54.7403 5.19067 55.347 5.032 56.047 5.032C56.7657 5.032 57.3723 5.16733 57.867 5.438C58.3617 5.70867 58.7583 6.068 59.057 6.516C59.3557 6.964 59.5703 7.468 59.701 8.028C59.841 8.588 59.911 9.162 59.911 9.75C59.911 10.8327 59.757 11.78 59.449 12.592C59.1503 13.404 58.7163 14.0387 58.147 14.496C57.5777 14.944 56.887 15.168 56.075 15.168ZM56.145 10.226C56.537 10.226 56.887 10.1373 57.195 9.96C57.503 9.78267 57.7457 9.54933 57.923 9.26C58.1097 8.96133 58.203 8.63467 58.203 8.28C58.203 7.89733 58.1097 7.56133 57.923 7.272C57.7457 6.97333 57.4983 6.74 57.181 6.572C56.873 6.404 56.523 6.32 56.131 6.32C55.739 6.32 55.389 6.404 55.081 6.572C54.773 6.74 54.5257 6.97333 54.339 7.272C54.1617 7.56133 54.073 7.89267 54.073 8.266C54.073 8.86333 54.269 9.33933 54.661 9.694C55.053 10.0487 55.5477 10.226 56.145 10.226ZM61.6307 15V5.2H63.1147V9.4L66.9787 5.2H68.8127L65.1867 9.106L68.8967 15H67.0907L64.1227 10.24L63.1147 11.332V15H61.6307Z" fill="#72767C"/>
<path d="M95.3372 9.33721H94.6706V8.67054C94.6706 8.49373 94.6003 8.32416 94.4753 8.19914C94.3503 8.07411 94.1807 8.00388 94.0039 8.00388C93.8271 8.00388 93.6575 8.07411 93.5325 8.19914C93.4075 8.32416 93.3372 8.49373 93.3372 8.67054V9.33721H92.6706C92.4938 9.33721 92.3242 9.40745 92.1992 9.53247C92.0741 9.6575 92.0039 9.82706 92.0039 10.0039C92.0039 10.1807 92.0741 10.3503 92.1992 10.4753C92.3242 10.6003 92.4938 10.6705 92.6706 10.6705H93.3372V11.3372C93.3372 11.514 93.4075 11.6836 93.5325 11.8086C93.6575 11.9336 93.8271 12.0039 94.0039 12.0039C94.1807 12.0039 94.3503 11.9336 94.4753 11.8086C94.6003 11.6836 94.6706 11.514 94.6706 11.3372V10.6705H95.3372C95.5141 10.6705 95.6836 10.6003 95.8086 10.4753C95.9337 10.3503 96.0039 10.1807 96.0039 10.0039C96.0039 9.82706 95.9337 9.6575 95.8086 9.53247C95.6836 9.40745 95.5141 9.33721 95.3372 9.33721ZM100.477 9.53054L98.9106 8.00388V5.76388C98.9106 5.58706 98.8403 5.4175 98.7153 5.29247C98.5903 5.16745 98.4207 5.09721 98.2439 5.09721H96.0372L94.4772 3.53054C94.4153 3.46806 94.3415 3.41846 94.2603 3.38461C94.1791 3.35077 94.0919 3.33334 94.0039 3.33334C93.9159 3.33334 93.8288 3.35077 93.7475 3.38461C93.6663 3.41846 93.5925 3.46806 93.5306 3.53054L92.0039 5.09721H89.7639C89.5871 5.09721 89.4175 5.16745 89.2925 5.29247C89.1675 5.4175 89.0972 5.58706 89.0972 5.76388V8.00388L87.5306 9.53054C87.4681 9.59252 87.4185 9.66625 87.3846 9.74749C87.3508 9.82873 87.3334 9.91587 87.3334 10.0039C87.3334 10.0919 87.3508 10.179 87.3846 10.2603C87.4185 10.3415 87.4681 10.4152 87.5306 10.4772L89.0972 12.0372V14.2439C89.0972 14.4207 89.1675 14.5903 89.2925 14.7153C89.4175 14.8403 89.5871 14.9105 89.7639 14.9105H92.0039L93.5639 16.4772C93.6259 16.5397 93.6996 16.5893 93.7809 16.6231C93.8621 16.657 93.9492 16.6744 94.0372 16.6744C94.1252 16.6744 94.2124 16.657 94.2936 16.6231C94.3749 16.5893 94.4486 16.5397 94.5106 16.4772L96.0706 14.9105H98.2772C98.4541 14.9105 98.6236 14.8403 98.7486 14.7153C98.8737 14.5903 98.9439 14.4207 98.9439 14.2439V12.0372L100.511 10.4772C100.571 10.4131 100.618 10.3376 100.649 10.2552C100.68 10.1727 100.694 10.0849 100.691 9.99693C100.688 9.9089 100.668 9.82237 100.631 9.74232C100.594 9.66226 100.542 9.59029 100.477 9.53054ZM97.7772 11.2905C97.7142 11.3523 97.6641 11.4259 97.6298 11.5072C97.5955 11.5884 97.5776 11.6757 97.5772 11.7639V13.5772H95.7639C95.6757 13.5776 95.5884 13.5954 95.5072 13.6298C95.4259 13.6641 95.3523 13.7142 95.2906 13.7772L94.0039 15.0639L92.7172 13.7772C92.6555 13.7142 92.5819 13.6641 92.5006 13.6298C92.4194 13.5954 92.3321 13.5776 92.2439 13.5772H90.4306V11.7639C90.4302 11.6757 90.4123 11.5884 90.378 11.5072C90.3437 11.4259 90.2936 11.3523 90.2306 11.2905L88.9439 10.0039L90.2306 8.71721C90.2936 8.65547 90.3437 8.58184 90.378 8.50059C90.4123 8.41934 90.4302 8.33208 90.4306 8.24388V6.43054H92.2439C92.3321 6.43018 92.4194 6.41231 92.5006 6.37798C92.5819 6.34365 92.6555 6.29353 92.7172 6.23054L94.0039 4.94388L95.2906 6.23054C95.3523 6.29353 95.4259 6.34365 95.5072 6.37798C95.5884 6.41231 95.6757 6.43018 95.7639 6.43054H97.5772V8.24388C97.5776 8.33208 97.5955 8.41934 97.6298 8.50059C97.6641 8.58184 97.7142 8.65547 97.7772 8.71721L99.0639 10.0039L97.7772 11.2905Z" fill="#72767C"/>
<path d="M131.225 8.38741C131.17 8.27774 131.085 8.18552 130.981 8.12096C130.877 8.0564 130.756 8.02203 130.633 8.02166H127.308V4.03166C127.316 3.88581 127.274 3.74167 127.192 3.62148C127.109 3.5013 126.988 3.41175 126.85 3.36665C126.716 3.32273 126.572 3.32223 126.438 3.36524C126.304 3.40826 126.188 3.49256 126.105 3.60606L120.785 10.9211C120.718 11.0174 120.678 11.1296 120.669 11.2464C120.659 11.3632 120.681 11.4804 120.732 11.5861C120.778 11.7069 120.859 11.8116 120.964 11.8872C121.069 11.9628 121.194 12.0061 121.323 12.0117H124.648V16.0017C124.649 16.1419 124.693 16.2785 124.775 16.392C124.858 16.5054 124.974 16.59 125.107 16.6334C125.174 16.6541 125.243 16.6653 125.313 16.6667C125.418 16.6669 125.522 16.6424 125.615 16.595C125.709 16.5476 125.79 16.4787 125.852 16.394L131.172 9.07901C131.244 8.97979 131.287 8.86272 131.296 8.7407C131.305 8.61867 131.281 8.49642 131.225 8.38741ZM125.978 13.9535V11.3467C125.978 11.1703 125.908 11.0012 125.784 10.8764C125.659 10.7517 125.49 10.6817 125.313 10.6817H122.653L125.978 6.07986V8.68666C125.978 8.86303 126.048 9.03218 126.173 9.15689C126.298 9.2816 126.467 9.35166 126.643 9.35166H129.303L125.978 13.9535Z" fill="#72767C"/>
<path d="M228.64 16.218V15.14C227.725 15.0373 226.993 14.7153 226.442 14.174C225.891 13.6327 225.611 12.9233 225.602 12.046H227.17C227.179 12.4847 227.31 12.872 227.562 13.208C227.814 13.5347 228.173 13.754 228.64 13.866V10.492C228.565 10.4733 228.486 10.45 228.402 10.422C228.327 10.394 228.248 10.366 228.164 10.338C227.408 10.086 226.839 9.75933 226.456 9.358C226.083 8.95667 225.896 8.42933 225.896 7.776C225.887 7.01067 226.134 6.38533 226.638 5.9C227.142 5.41467 227.809 5.13 228.64 5.046V3.926H229.592V5.06C230.404 5.15333 231.057 5.44733 231.552 5.942C232.047 6.43667 232.299 7.05733 232.308 7.804H230.74C230.731 7.496 230.628 7.20667 230.432 6.936C230.245 6.656 229.965 6.46467 229.592 6.362V9.358C229.667 9.386 229.741 9.414 229.816 9.442C229.891 9.46067 229.965 9.484 230.04 9.512C230.525 9.67067 230.959 9.862 231.342 10.086C231.725 10.31 232.028 10.604 232.252 10.968C232.485 11.332 232.602 11.794 232.602 12.354C232.602 12.8207 232.49 13.2593 232.266 13.67C232.042 14.0713 231.706 14.4073 231.258 14.678C230.81 14.9487 230.255 15.1073 229.592 15.154V16.218H228.64ZM227.436 7.65C227.436 8.02333 227.543 8.31267 227.758 8.518C227.973 8.714 228.267 8.88667 228.64 9.036V6.32C228.285 6.38533 227.996 6.53467 227.772 6.768C227.548 6.992 227.436 7.286 227.436 7.65ZM231.034 12.452C231.034 11.9947 230.899 11.6493 230.628 11.416C230.357 11.1733 230.012 10.9727 229.592 10.814V13.894C230.049 13.838 230.404 13.6793 230.656 13.418C230.908 13.1567 231.034 12.8347 231.034 12.452ZM234.028 15V13.936C234.663 13.432 235.27 12.9233 235.848 12.41C236.427 11.8967 236.94 11.3927 237.388 10.898C237.846 10.394 238.205 9.904 238.466 9.428C238.728 8.94267 238.858 8.476 238.858 8.028C238.858 7.72933 238.807 7.44933 238.704 7.188C238.602 6.91733 238.434 6.70267 238.2 6.544C237.967 6.376 237.654 6.292 237.262 6.292C236.674 6.292 236.231 6.47867 235.932 6.852C235.643 7.22533 235.503 7.67333 235.512 8.196H234.07C234.08 7.50533 234.224 6.92667 234.504 6.46C234.794 5.99333 235.176 5.63867 235.652 5.396C236.138 5.15333 236.684 5.032 237.29 5.032C238.214 5.032 238.952 5.29333 239.502 5.816C240.062 6.32933 240.342 7.048 240.342 7.972C240.342 8.52267 240.207 9.06867 239.936 9.61C239.675 10.1513 239.33 10.674 238.9 11.178C238.48 11.6727 238.028 12.1393 237.542 12.578C237.057 13.0167 236.595 13.4133 236.156 13.768H240.636V15H234.028ZM245.834 15.168C245.116 15.168 244.509 15.0327 244.014 14.762C243.52 14.4913 243.118 14.132 242.81 13.684C242.512 13.236 242.297 12.732 242.166 12.172C242.036 11.612 241.97 11.038 241.97 10.45C241.97 9.36733 242.12 8.42 242.418 7.608C242.726 6.796 243.165 6.166 243.734 5.718C244.304 5.26067 244.994 5.032 245.806 5.032C246.45 5.032 247.001 5.158 247.458 5.41C247.916 5.662 248.27 5.998 248.522 6.418C248.784 6.838 248.942 7.29533 248.998 7.79H247.612C247.528 7.30467 247.328 6.93133 247.01 6.67C246.693 6.40867 246.287 6.278 245.792 6.278C245.111 6.278 244.546 6.6 244.098 7.244C243.66 7.87867 243.426 8.85867 243.398 10.184C243.622 9.77333 243.968 9.42333 244.434 9.134C244.91 8.84467 245.456 8.7 246.072 8.7C246.623 8.7 247.136 8.83067 247.612 9.092C248.098 9.35333 248.49 9.722 248.788 10.198C249.096 10.6647 249.25 11.22 249.25 11.864C249.25 12.4333 249.11 12.97 248.83 13.474C248.55 13.978 248.154 14.3887 247.64 14.706C247.136 15.014 246.534 15.168 245.834 15.168ZM245.75 13.88C246.142 13.88 246.492 13.796 246.8 13.628C247.108 13.46 247.351 13.2313 247.528 12.942C247.706 12.6433 247.794 12.3073 247.794 11.934C247.794 11.3367 247.598 10.8607 247.206 10.506C246.824 10.1513 246.334 9.974 245.736 9.974C245.344 9.974 244.99 10.0627 244.672 10.24C244.364 10.4173 244.122 10.6553 243.944 10.954C243.767 11.2433 243.678 11.5653 243.678 11.92C243.678 12.3027 243.767 12.6433 243.944 12.942C244.131 13.2313 244.378 13.46 244.686 13.628C245.004 13.796 245.358 13.88 245.75 13.88ZM249.946 16.442L253.446 4.206H254.902L251.388 16.442H249.946ZM256.208 15V4.92H257.692V9.176C257.925 8.77467 258.247 8.462 258.658 8.238C259.078 8.00467 259.54 7.888 260.044 7.888C260.874 7.888 261.528 8.14933 262.004 8.672C262.48 9.19467 262.718 9.974 262.718 11.01V15H261.248V11.164C261.248 9.82 260.711 9.148 259.638 9.148C259.078 9.148 258.611 9.344 258.238 9.736C257.874 10.128 257.692 10.688 257.692 11.416V15H256.208Z" fill="#72767C"/>
</svg>
