<svg width="264" height="20" viewBox="0 0 264 20" fill="none" xmlns="http://www.w3.org/2000/svg">
<path d="M4.58329 14.5833H3.33329V5.41667H9.83329L9.16663 6.08333C8.99996 6.25 8.91663 6.41667 8.91663 6.66667C8.91663 7.16667 9.24996 7.5 9.74996 7.5C9.99996 7.5 10.1666 7.41667 10.3333 7.25L12.4166 5.16667C12.75 4.83333 12.75 4.33333 12.4166 4L10.3333 1.91667C9.99996 1.58333 9.49996 1.58333 9.16663 1.91667C8.83329 2.25 8.83329 2.75 9.16663 3.08333L9.83329 3.75H2.49996C1.99996 3.75 1.66663 4.08333 1.66663 4.58333V15.4167C1.66663 15.9167 1.99996 16.25 2.49996 16.25H4.58329C5.08329 16.25 5.41663 15.9167 5.41663 15.4167C5.41663 14.9167 5.08329 14.5833 4.58329 14.5833ZM17.5 3.75H15.4166C14.9166 3.75 14.5833 4.08333 14.5833 4.58333C14.5833 5.08333 14.9166 5.41667 15.4166 5.41667H16.6666V14.5833H9.66663L10.3333 13.9167C10.6666 13.5833 10.6666 13.0833 10.3333 12.75C9.99996 12.4167 9.49996 12.4167 9.16663 12.75L7.08329 14.8333C6.74996 15.1667 6.74996 15.6667 7.08329 16L9.16663 18.0833C9.33329 18.25 9.49996 18.3333 9.74996 18.3333C9.99996 18.3333 10.1666 18.25 10.3333 18.0833C10.6666 17.75 10.6666 17.25 10.3333 16.9167L9.66663 16.25H17.5C18 16.25 18.3333 15.9167 18.3333 15.4167V4.58333C18.3333 4.08333 18 3.75 17.5 3.75Z" fill="#72767C"/>
<path d="M40.41 15.168C39.7193 15.168 39.122 15.0467 38.618 14.804C38.114 14.552 37.7127 14.2113 37.414 13.782C37.1247 13.3433 36.9473 12.8487 36.882 12.298H38.338C38.4313 12.7647 38.6647 13.152 39.038 13.46C39.4113 13.7587 39.8733 13.908 40.424 13.908C40.8347 13.908 41.1893 13.81 41.488 13.614C41.7867 13.4087 42.02 13.138 42.188 12.802C42.356 12.466 42.44 12.088 42.44 11.668C42.44 11.0053 42.2533 10.478 41.88 10.086C41.5067 9.68467 41.0353 9.484 40.466 9.484C39.9807 9.484 39.5653 9.60067 39.22 9.834C38.8747 10.058 38.6227 10.3427 38.464 10.688H37.05L37.89 5.2H43.182V6.502H39.01L38.506 9.12C38.7207 8.87733 39.0147 8.67667 39.388 8.518C39.7707 8.35 40.2 8.266 40.676 8.266C41.3387 8.266 41.908 8.42 42.384 8.728C42.86 9.02667 43.224 9.43267 43.476 9.946C43.7373 10.4593 43.868 11.0287 43.868 11.654C43.868 12.3073 43.728 12.9 43.448 13.432C43.168 13.964 42.7667 14.3887 42.244 14.706C41.7307 15.014 41.1193 15.168 40.41 15.168ZM48.757 15.168C48.1223 15.168 47.5436 15.056 47.021 14.832C46.5076 14.5987 46.097 14.2487 45.789 13.782C45.481 13.3153 45.3176 12.732 45.299 12.032H46.769C46.7876 12.5547 46.965 12.998 47.301 13.362C47.6463 13.7167 48.1316 13.894 48.757 13.894C49.3543 13.894 49.8116 13.7307 50.129 13.404C50.4463 13.068 50.605 12.6527 50.605 12.158C50.605 11.5607 50.3903 11.1173 49.961 10.828C49.541 10.5387 49.023 10.394 48.407 10.394H47.679V9.162H48.421C48.9716 9.162 49.415 9.03133 49.751 8.77C50.0963 8.50867 50.269 8.14 50.269 7.664C50.269 7.26267 50.1336 6.936 49.863 6.684C49.6016 6.432 49.2283 6.306 48.743 6.306C48.239 6.306 47.8423 6.45533 47.553 6.754C47.2636 7.04333 47.105 7.40733 47.077 7.846H45.607C45.6256 7.27667 45.7656 6.782 46.027 6.362C46.2976 5.942 46.6663 5.61533 47.133 5.382C47.5996 5.14867 48.1363 5.032 48.743 5.032C49.3963 5.032 49.9423 5.14867 50.381 5.382C50.829 5.606 51.165 5.914 51.389 6.306C51.6223 6.68867 51.739 7.10867 51.739 7.566C51.739 8.08867 51.5943 8.546 51.305 8.938C51.0156 9.33 50.6283 9.59133 50.143 9.722C50.703 9.84333 51.165 10.1187 51.529 10.548C51.893 10.968 52.075 11.514 52.075 12.186C52.075 12.7273 51.949 13.2267 51.697 13.684C51.445 14.132 51.0716 14.4913 50.577 14.762C50.0823 15.0327 49.4756 15.168 48.757 15.168ZM53.7101 15V13.936C54.3448 13.432 54.9514 12.9233 55.5301 12.41C56.1088 11.8967 56.6221 11.3927 57.0701 10.898C57.5274 10.394 57.8868 9.904 58.1481 9.428C58.4094 8.94267 58.5401 8.476 58.5401 8.028C58.5401 7.72933 58.4888 7.44933 58.3861 7.188C58.2834 6.91733 58.1154 6.70267 57.8821 6.544C57.6488 6.376 57.3361 6.292 56.9441 6.292C56.3561 6.292 55.9128 6.47867 55.6141 6.852C55.3248 7.22533 55.1848 7.67333 55.1941 8.196H53.7521C53.7614 7.50533 53.9061 6.92667 54.1861 6.46C54.4754 5.99333 54.8581 5.63867 55.3341 5.396C55.8194 5.15333 56.3654 5.032 56.9721 5.032C57.8961 5.032 58.6334 5.29333 59.1841 5.816C59.7441 6.32933 60.0241 7.048 60.0241 7.972C60.0241 8.52267 59.8888 9.06867 59.6181 9.61C59.3568 10.1513 59.0114 10.674 58.5821 11.178C58.1621 11.6727 57.7094 12.1393 57.2241 12.578C56.7388 13.0167 56.2768 13.4133 55.8381 13.768H60.3181V15H53.7101ZM61.9178 15V5.2H63.4018V9.4L67.2658 5.2H69.0998L65.4738 9.106L69.1838 15H67.3778L64.4098 10.24L63.4018 11.332V15H61.9178Z" fill="#72767C"/>
<path d="M95.3372 9.3372H94.6706V8.67053C94.6706 8.49372 94.6003 8.32415 94.4753 8.19913C94.3503 8.0741 94.1807 8.00387 94.0039 8.00387C93.8271 8.00387 93.6575 8.0741 93.5325 8.19913C93.4075 8.32415 93.3372 8.49372 93.3372 8.67053V9.3372H92.6706C92.4938 9.3372 92.3242 9.40744 92.1992 9.53246C92.0741 9.65749 92.0039 9.82706 92.0039 10.0039C92.0039 10.1807 92.0741 10.3502 92.1992 10.4753C92.3242 10.6003 92.4938 10.6705 92.6706 10.6705H93.3372V11.3372C93.3372 11.514 93.4075 11.6836 93.5325 11.8086C93.6575 11.9336 93.8271 12.0039 94.0039 12.0039C94.1807 12.0039 94.3503 11.9336 94.4753 11.8086C94.6003 11.6836 94.6706 11.514 94.6706 11.3372V10.6705H95.3372C95.5141 10.6705 95.6836 10.6003 95.8086 10.4753C95.9337 10.3502 96.0039 10.1807 96.0039 10.0039C96.0039 9.82706 95.9337 9.65749 95.8086 9.53246C95.6836 9.40744 95.5141 9.3372 95.3372 9.3372ZM100.477 9.53053L98.9106 8.00387V5.76387C98.9106 5.58706 98.8403 5.41749 98.7153 5.29246C98.5903 5.16744 98.4207 5.0972 98.2439 5.0972H96.0372L94.4772 3.53053C94.4153 3.46805 94.3415 3.41845 94.2603 3.38461C94.1791 3.35076 94.0919 3.33333 94.0039 3.33333C93.9159 3.33333 93.8288 3.35076 93.7475 3.38461C93.6663 3.41845 93.5925 3.46805 93.5306 3.53053L92.0039 5.0972H89.7639C89.5871 5.0972 89.4175 5.16744 89.2925 5.29246C89.1675 5.41749 89.0972 5.58706 89.0972 5.76387V8.00387L87.5306 9.53053C87.4681 9.59251 87.4185 9.66624 87.3846 9.74748C87.3508 9.82872 87.3334 9.91586 87.3334 10.0039C87.3334 10.0919 87.3508 10.179 87.3846 10.2603C87.4185 10.3415 87.4681 10.4152 87.5306 10.4772L89.0972 12.0372V14.2439C89.0972 14.4207 89.1675 14.5902 89.2925 14.7153C89.4175 14.8403 89.5871 14.9105 89.7639 14.9105H92.0039L93.5639 16.4772C93.6259 16.5397 93.6996 16.5893 93.7809 16.6231C93.8621 16.657 93.9492 16.6744 94.0372 16.6744C94.1252 16.6744 94.2124 16.657 94.2936 16.6231C94.3749 16.5893 94.4486 16.5397 94.5106 16.4772L96.0706 14.9105H98.2772C98.4541 14.9105 98.6236 14.8403 98.7486 14.7153C98.8737 14.5902 98.9439 14.4207 98.9439 14.2439V12.0372L100.511 10.4772C100.571 10.4131 100.618 10.3376 100.649 10.2551C100.68 10.1727 100.694 10.0849 100.691 9.99692C100.688 9.90889 100.668 9.82236 100.631 9.74231C100.594 9.66226 100.542 9.59028 100.477 9.53053ZM97.7772 11.2905C97.7142 11.3523 97.6641 11.4259 97.6298 11.5072C97.5955 11.5884 97.5776 11.6757 97.5772 11.7639V13.5772H95.7639C95.6757 13.5776 95.5884 13.5954 95.5072 13.6298C95.4259 13.6641 95.3523 13.7142 95.2906 13.7772L94.0039 15.0639L92.7172 13.7772C92.6555 13.7142 92.5819 13.6641 92.5006 13.6298C92.4194 13.5954 92.3321 13.5776 92.2439 13.5772H90.4306V11.7639C90.4302 11.6757 90.4123 11.5884 90.378 11.5072C90.3437 11.4259 90.2936 11.3523 90.2306 11.2905L88.9439 10.0039L90.2306 8.7172C90.2936 8.65546 90.3437 8.58183 90.378 8.50058C90.4123 8.41933 90.4302 8.33207 90.4306 8.24387V6.43053H92.2439C92.3321 6.43017 92.4194 6.4123 92.5006 6.37797C92.5819 6.34364 92.6555 6.29353 92.7172 6.23053L94.0039 4.94387L95.2906 6.23053C95.3523 6.29353 95.4259 6.34364 95.5072 6.37797C95.5884 6.4123 95.6757 6.43017 95.7639 6.43053H97.5772V8.24387C97.5776 8.33207 97.5955 8.41933 97.6298 8.50058C97.6641 8.58183 97.7142 8.65546 97.7772 8.7172L99.0639 10.0039L97.7772 11.2905Z" fill="#72767C"/>
<path d="M131.225 8.3874C131.17 8.27773 131.085 8.18551 130.981 8.12095C130.877 8.05639 130.756 8.02202 130.633 8.02165H127.308V4.03165C127.316 3.8858 127.274 3.74166 127.192 3.62147C127.109 3.50129 126.988 3.41174 126.85 3.36665C126.716 3.32272 126.572 3.32222 126.438 3.36524C126.304 3.40825 126.188 3.49255 126.105 3.60605L120.785 10.9211C120.718 11.0174 120.678 11.1296 120.669 11.2464C120.659 11.3632 120.681 11.4803 120.732 11.5861C120.778 11.7069 120.859 11.8116 120.964 11.8872C121.069 11.9628 121.194 12.006 121.323 12.0117H124.648V16.0017C124.649 16.1419 124.693 16.2785 124.775 16.392C124.858 16.5054 124.974 16.5899 125.107 16.6334C125.174 16.6541 125.243 16.6653 125.313 16.6667C125.418 16.6669 125.522 16.6424 125.615 16.595C125.709 16.5476 125.79 16.4787 125.852 16.394L131.172 9.079C131.244 8.97978 131.287 8.86271 131.296 8.74069C131.305 8.61866 131.281 8.49641 131.225 8.3874ZM125.978 13.9535V11.3467C125.978 11.1703 125.908 11.0011 125.784 10.8764C125.659 10.7517 125.49 10.6817 125.313 10.6817H122.653L125.978 6.07985V8.68665C125.978 8.86302 126.048 9.03217 126.173 9.15688C126.298 9.28159 126.467 9.35165 126.643 9.35165H129.303L125.978 13.9535Z" fill="#72767C"/>
<path d="M227.64 16.218V15.14C226.725 15.0373 225.993 14.7153 225.442 14.174C224.891 13.6327 224.611 12.9233 224.602 12.046H226.17C226.179 12.4847 226.31 12.872 226.562 13.208C226.814 13.5347 227.173 13.754 227.64 13.866V10.492C227.565 10.4733 227.486 10.45 227.402 10.422C227.327 10.394 227.248 10.366 227.164 10.338C226.408 10.086 225.839 9.75933 225.456 9.358C225.083 8.95667 224.896 8.42933 224.896 7.776C224.887 7.01067 225.134 6.38533 225.638 5.9C226.142 5.41467 226.809 5.13 227.64 5.046V3.926H228.592V5.06C229.404 5.15333 230.057 5.44733 230.552 5.942C231.047 6.43667 231.299 7.05733 231.308 7.804H229.74C229.731 7.496 229.628 7.20667 229.432 6.936C229.245 6.656 228.965 6.46467 228.592 6.362V9.358C228.667 9.386 228.741 9.414 228.816 9.442C228.891 9.46067 228.965 9.484 229.04 9.512C229.525 9.67067 229.959 9.862 230.342 10.086C230.725 10.31 231.028 10.604 231.252 10.968C231.485 11.332 231.602 11.794 231.602 12.354C231.602 12.8207 231.49 13.2593 231.266 13.67C231.042 14.0713 230.706 14.4073 230.258 14.678C229.81 14.9487 229.255 15.1073 228.592 15.154V16.218H227.64ZM226.436 7.65C226.436 8.02333 226.543 8.31267 226.758 8.518C226.973 8.714 227.267 8.88667 227.64 9.036V6.32C227.285 6.38533 226.996 6.53467 226.772 6.768C226.548 6.992 226.436 7.286 226.436 7.65ZM230.034 12.452C230.034 11.9947 229.899 11.6493 229.628 11.416C229.357 11.1733 229.012 10.9727 228.592 10.814V13.894C229.049 13.838 229.404 13.6793 229.656 13.418C229.908 13.1567 230.034 12.8347 230.034 12.452ZM236.64 15.168C235.95 15.168 235.352 15.0467 234.848 14.804C234.344 14.552 233.943 14.2113 233.644 13.782C233.355 13.3433 233.178 12.8487 233.112 12.298H234.568C234.662 12.7647 234.895 13.152 235.268 13.46C235.642 13.7587 236.104 13.908 236.654 13.908C237.065 13.908 237.42 13.81 237.718 13.614C238.017 13.4087 238.25 13.138 238.418 12.802C238.586 12.466 238.67 12.088 238.67 11.668C238.67 11.0053 238.484 10.478 238.11 10.086C237.737 9.68467 237.266 9.484 236.696 9.484C236.211 9.484 235.796 9.60067 235.45 9.834C235.105 10.058 234.853 10.3427 234.694 10.688H233.28L234.12 5.2H239.412V6.502H235.24L234.736 9.12C234.951 8.87733 235.245 8.67667 235.618 8.518C236.001 8.35 236.43 8.266 236.906 8.266C237.569 8.266 238.138 8.42 238.614 8.728C239.09 9.02667 239.454 9.43267 239.706 9.946C239.968 10.4593 240.098 11.0287 240.098 11.654C240.098 12.3073 239.958 12.9 239.678 13.432C239.398 13.964 238.997 14.3887 238.474 14.706C237.961 15.014 237.35 15.168 236.64 15.168ZM245.267 15.168C244.577 15.168 243.979 15.0467 243.475 14.804C242.971 14.552 242.57 14.2113 242.271 13.782C241.982 13.3433 241.805 12.8487 241.739 12.298H243.195C243.289 12.7647 243.522 13.152 243.895 13.46C244.269 13.7587 244.731 13.908 245.281 13.908C245.692 13.908 246.047 13.81 246.345 13.614C246.644 13.4087 246.877 13.138 247.045 12.802C247.213 12.466 247.297 12.088 247.297 11.668C247.297 11.0053 247.111 10.478 246.737 10.086C246.364 9.68467 245.893 9.484 245.323 9.484C244.838 9.484 244.423 9.60067 244.077 9.834C243.732 10.058 243.48 10.3427 243.321 10.688H241.907L242.747 5.2H248.039V6.502H243.867L243.363 9.12C243.578 8.87733 243.872 8.67667 244.245 8.518C244.628 8.35 245.057 8.266 245.533 8.266C246.196 8.266 246.765 8.42 247.241 8.728C247.717 9.02667 248.081 9.43267 248.333 9.946C248.595 10.4593 248.725 11.0287 248.725 11.654C248.725 12.3073 248.585 12.9 248.305 13.432C248.025 13.964 247.624 14.3887 247.101 14.706C246.588 15.014 245.977 15.168 245.267 15.168ZM249.425 16.442L252.925 4.206H254.381L250.867 16.442H249.425ZM255.686 15V4.92H257.17V9.176C257.403 8.77467 257.725 8.462 258.136 8.238C258.556 8.00467 259.018 7.888 259.522 7.888C260.353 7.888 261.006 8.14933 261.482 8.672C261.958 9.19467 262.196 9.974 262.196 11.01V15H260.726V11.164C260.726 9.82 260.189 9.148 259.116 9.148C258.556 9.148 258.089 9.344 257.716 9.736C257.352 10.128 257.17 10.688 257.17 11.416V15H255.686Z" fill="#72767C"/>
</svg>
