<svg width="264" height="20" viewBox="0 0 264 20" fill="none" xmlns="http://www.w3.org/2000/svg">
<path d="M4.58329 14.5833H3.33329V5.41666H9.83329L9.16663 6.08332C8.99996 6.24999 8.91663 6.41666 8.91663 6.66666C8.91663 7.16666 9.24996 7.49999 9.74996 7.49999C9.99996 7.49999 10.1666 7.41666 10.3333 7.24999L12.4166 5.16666C12.75 4.83332 12.75 4.33332 12.4166 3.99999L10.3333 1.91666C9.99996 1.58332 9.49996 1.58332 9.16663 1.91666C8.83329 2.24999 8.83329 2.74999 9.16663 3.08332L9.83329 3.74999H2.49996C1.99996 3.74999 1.66663 4.08332 1.66663 4.58332V15.4167C1.66663 15.9167 1.99996 16.25 2.49996 16.25H4.58329C5.08329 16.25 5.41663 15.9167 5.41663 15.4167C5.41663 14.9167 5.08329 14.5833 4.58329 14.5833ZM17.5 3.74999H15.4166C14.9166 3.74999 14.5833 4.08332 14.5833 4.58332C14.5833 5.08332 14.9166 5.41666 15.4166 5.41666H16.6666V14.5833H9.66663L10.3333 13.9167C10.6666 13.5833 10.6666 13.0833 10.3333 12.75C9.99996 12.4167 9.49996 12.4167 9.16663 12.75L7.08329 14.8333C6.74996 15.1667 6.74996 15.6667 7.08329 16L9.16663 18.0833C9.33329 18.25 9.49996 18.3333 9.74996 18.3333C9.99996 18.3333 10.1666 18.25 10.3333 18.0833C10.6666 17.75 10.6666 17.25 10.3333 16.9167L9.66663 16.25H17.5C18 16.25 18.3333 15.9167 18.3333 15.4167V4.58332C18.3333 4.08332 18 3.74999 17.5 3.74999Z" fill="#72767C"/>
<path d="M40.34 15.168C39.6867 15.168 39.094 15.0513 38.562 14.818C38.0393 14.5753 37.6193 14.2393 37.302 13.81C36.994 13.3807 36.84 12.8767 36.84 12.298C36.84 11.71 37.0033 11.1827 37.33 10.716C37.666 10.2493 38.1093 9.932 38.66 9.764C38.1653 9.568 37.7827 9.28333 37.512 8.91C37.2413 8.52733 37.106 8.10733 37.106 7.65C37.106 7.174 37.232 6.74 37.484 6.348C37.736 5.94667 38.1 5.62933 38.576 5.396C39.0613 5.15333 39.6493 5.032 40.34 5.032C41.0307 5.032 41.614 5.15333 42.09 5.396C42.5753 5.62933 42.944 5.94667 43.196 6.348C43.448 6.74 43.574 7.174 43.574 7.65C43.574 8.098 43.434 8.518 43.154 8.91C42.8833 9.29267 42.5007 9.57733 42.006 9.764C42.5567 9.94133 42.9953 10.2633 43.322 10.73C43.658 11.1873 43.826 11.71 43.826 12.298C43.826 12.8767 43.672 13.3807 43.364 13.81C43.056 14.2393 42.636 14.5753 42.104 14.818C41.5813 15.0513 40.9933 15.168 40.34 15.168ZM40.34 9.288C40.8813 9.288 41.306 9.148 41.614 8.868C41.9313 8.588 42.09 8.22867 42.09 7.79C42.09 7.29533 41.936 6.91733 41.628 6.656C41.32 6.39467 40.8907 6.264 40.34 6.264C39.7893 6.264 39.36 6.39467 39.052 6.656C38.744 6.91733 38.59 7.29533 38.59 7.79C38.59 8.22867 38.744 8.588 39.052 8.868C39.36 9.148 39.7893 9.288 40.34 9.288ZM40.34 13.908C41.012 13.908 41.516 13.7493 41.852 13.432C42.188 13.1053 42.356 12.69 42.356 12.186C42.356 11.626 42.174 11.1967 41.81 10.898C41.4553 10.59 40.9653 10.436 40.34 10.436C39.7147 10.436 39.22 10.59 38.856 10.898C38.492 11.1967 38.31 11.626 38.31 12.186C38.31 12.69 38.478 13.1053 38.814 13.432C39.1593 13.7493 39.668 13.908 40.34 13.908ZM49.0916 15.168C48.401 15.168 47.8036 15.0467 47.2996 14.804C46.7956 14.552 46.3943 14.2113 46.0956 13.782C45.8063 13.3433 45.629 12.8487 45.5636 12.298H47.0196C47.113 12.7647 47.3463 13.152 47.7196 13.46C48.093 13.7587 48.555 13.908 49.1056 13.908C49.5163 13.908 49.871 13.81 50.1696 13.614C50.4683 13.4087 50.7016 13.138 50.8696 12.802C51.0376 12.466 51.1216 12.088 51.1216 11.668C51.1216 11.0053 50.935 10.478 50.5616 10.086C50.1883 9.68467 49.717 9.484 49.1476 9.484C48.6623 9.484 48.247 9.60067 47.9016 9.834C47.5563 10.058 47.3043 10.3427 47.1456 10.688H45.7316L46.5716 5.2H51.8636V6.502H47.6916L47.1876 9.12C47.4023 8.87733 47.6963 8.67667 48.0696 8.518C48.4523 8.35 48.8816 8.266 49.3576 8.266C50.0203 8.266 50.5896 8.42 51.0656 8.728C51.5416 9.02667 51.9056 9.43267 52.1576 9.946C52.419 10.4593 52.5496 11.0287 52.5496 11.654C52.5496 12.3073 52.4096 12.9 52.1296 13.432C51.8496 13.964 51.4483 14.3887 50.9256 14.706C50.4123 15.014 49.801 15.168 49.0916 15.168ZM53.9289 15V13.936C54.5635 13.432 55.1702 12.9233 55.7489 12.41C56.3275 11.8967 56.8409 11.3927 57.2889 10.898C57.7462 10.394 58.1055 9.904 58.3669 9.428C58.6282 8.94267 58.7589 8.476 58.7589 8.028C58.7589 7.72933 58.7075 7.44933 58.6049 7.188C58.5022 6.91733 58.3342 6.70267 58.1009 6.544C57.8675 6.376 57.5549 6.292 57.1629 6.292C56.5749 6.292 56.1315 6.47867 55.8329 6.852C55.5435 7.22533 55.4035 7.67333 55.4129 8.196H53.9709C53.9802 7.50533 54.1249 6.92667 54.4049 6.46C54.6942 5.99333 55.0769 5.63867 55.5529 5.396C56.0382 5.15333 56.5842 5.032 57.1909 5.032C58.1149 5.032 58.8522 5.29333 59.4029 5.816C59.9629 6.32933 60.2429 7.048 60.2429 7.972C60.2429 8.52267 60.1075 9.06867 59.8369 9.61C59.5755 10.1513 59.2302 10.674 58.8009 11.178C58.3809 11.6727 57.9282 12.1393 57.4429 12.578C56.9575 13.0167 56.4955 13.4133 56.0569 13.768H60.5369V15H53.9289ZM62.1366 15V5.2H63.6206V9.4L67.4846 5.2H69.3186L65.6926 9.106L69.4026 15H67.5966L64.6286 10.24L63.6206 11.332V15H62.1366Z" fill="#72767C"/>
<path d="M95.3372 9.33721H94.6706V8.67054C94.6706 8.49373 94.6003 8.32416 94.4753 8.19914C94.3503 8.07411 94.1807 8.00388 94.0039 8.00388C93.8271 8.00388 93.6575 8.07411 93.5325 8.19914C93.4075 8.32416 93.3372 8.49373 93.3372 8.67054V9.33721H92.6706C92.4938 9.33721 92.3242 9.40745 92.1992 9.53247C92.0741 9.6575 92.0039 9.82706 92.0039 10.0039C92.0039 10.1807 92.0741 10.3503 92.1992 10.4753C92.3242 10.6003 92.4938 10.6705 92.6706 10.6705H93.3372V11.3372C93.3372 11.514 93.4075 11.6836 93.5325 11.8086C93.6575 11.9336 93.8271 12.0039 94.0039 12.0039C94.1807 12.0039 94.3503 11.9336 94.4753 11.8086C94.6003 11.6836 94.6706 11.514 94.6706 11.3372V10.6705H95.3372C95.5141 10.6705 95.6836 10.6003 95.8086 10.4753C95.9337 10.3503 96.0039 10.1807 96.0039 10.0039C96.0039 9.82706 95.9337 9.6575 95.8086 9.53247C95.6836 9.40745 95.5141 9.33721 95.3372 9.33721ZM100.477 9.53054L98.9106 8.00388V5.76388C98.9106 5.58706 98.8403 5.4175 98.7153 5.29247C98.5903 5.16745 98.4207 5.09721 98.2439 5.09721H96.0372L94.4772 3.53054C94.4153 3.46806 94.3415 3.41846 94.2603 3.38461C94.1791 3.35077 94.0919 3.33334 94.0039 3.33334C93.9159 3.33334 93.8288 3.35077 93.7475 3.38461C93.6663 3.41846 93.5925 3.46806 93.5306 3.53054L92.0039 5.09721H89.7639C89.5871 5.09721 89.4175 5.16745 89.2925 5.29247C89.1675 5.4175 89.0972 5.58706 89.0972 5.76388V8.00388L87.5306 9.53054C87.4681 9.59252 87.4185 9.66625 87.3846 9.74749C87.3508 9.82873 87.3334 9.91587 87.3334 10.0039C87.3334 10.0919 87.3508 10.179 87.3846 10.2603C87.4185 10.3415 87.4681 10.4152 87.5306 10.4772L89.0972 12.0372V14.2439C89.0972 14.4207 89.1675 14.5903 89.2925 14.7153C89.4175 14.8403 89.5871 14.9105 89.7639 14.9105H92.0039L93.5639 16.4772C93.6259 16.5397 93.6996 16.5893 93.7809 16.6231C93.8621 16.657 93.9492 16.6744 94.0372 16.6744C94.1252 16.6744 94.2124 16.657 94.2936 16.6231C94.3749 16.5893 94.4486 16.5397 94.5106 16.4772L96.0706 14.9105H98.2772C98.4541 14.9105 98.6236 14.8403 98.7486 14.7153C98.8737 14.5903 98.9439 14.4207 98.9439 14.2439V12.0372L100.511 10.4772C100.571 10.4131 100.618 10.3376 100.649 10.2552C100.68 10.1727 100.694 10.0849 100.691 9.99693C100.688 9.9089 100.668 9.82237 100.631 9.74232C100.594 9.66226 100.542 9.59029 100.477 9.53054ZM97.7772 11.2905C97.7142 11.3523 97.6641 11.4259 97.6298 11.5072C97.5955 11.5884 97.5776 11.6757 97.5772 11.7639V13.5772H95.7639C95.6757 13.5776 95.5884 13.5954 95.5072 13.6298C95.4259 13.6641 95.3523 13.7142 95.2906 13.7772L94.0039 15.0639L92.7172 13.7772C92.6555 13.7142 92.5819 13.6641 92.5006 13.6298C92.4194 13.5954 92.3321 13.5776 92.2439 13.5772H90.4306V11.7639C90.4302 11.6757 90.4123 11.5884 90.378 11.5072C90.3437 11.4259 90.2936 11.3523 90.2306 11.2905L88.9439 10.0039L90.2306 8.71721C90.2936 8.65547 90.3437 8.58184 90.378 8.50059C90.4123 8.41934 90.4302 8.33208 90.4306 8.24388V6.43054H92.2439C92.3321 6.43018 92.4194 6.41231 92.5006 6.37798C92.5819 6.34365 92.6555 6.29353 92.7172 6.23054L94.0039 4.94388L95.2906 6.23054C95.3523 6.29353 95.4259 6.34365 95.5072 6.37798C95.5884 6.41231 95.6757 6.43018 95.7639 6.43054H97.5772V8.24388C97.5776 8.33208 97.5955 8.41934 97.6298 8.50059C97.6641 8.58184 97.7142 8.65547 97.7772 8.71721L99.0639 10.0039L97.7772 11.2905Z" fill="#72767C"/>
<path d="M131.225 8.38741C131.17 8.27774 131.085 8.18552 130.981 8.12096C130.877 8.0564 130.756 8.02203 130.633 8.02166H127.308V4.03166C127.316 3.88581 127.274 3.74167 127.192 3.62148C127.109 3.5013 126.988 3.41175 126.85 3.36665C126.716 3.32273 126.572 3.32223 126.438 3.36524C126.304 3.40826 126.188 3.49256 126.105 3.60606L120.785 10.9211C120.718 11.0174 120.678 11.1296 120.669 11.2464C120.659 11.3632 120.681 11.4804 120.732 11.5861C120.778 11.7069 120.859 11.8116 120.964 11.8872C121.069 11.9628 121.194 12.0061 121.323 12.0117H124.648V16.0017C124.649 16.1419 124.693 16.2785 124.775 16.392C124.858 16.5054 124.974 16.59 125.107 16.6334C125.174 16.6541 125.243 16.6653 125.313 16.6667C125.418 16.6669 125.522 16.6424 125.615 16.595C125.709 16.5476 125.79 16.4787 125.852 16.394L131.172 9.07901C131.244 8.97979 131.287 8.86272 131.296 8.7407C131.305 8.61867 131.281 8.49642 131.225 8.38741ZM125.978 13.9535V11.3467C125.978 11.1703 125.908 11.0012 125.784 10.8764C125.659 10.7517 125.49 10.6817 125.313 10.6817H122.653L125.978 6.07986V8.68666C125.978 8.86303 126.048 9.03218 126.173 9.15689C126.298 9.2816 126.467 9.35166 126.643 9.35166H129.303L125.978 13.9535Z" fill="#72767C"/>
<path d="M232.64 16.218V15.14C231.725 15.0373 230.993 14.7153 230.442 14.174C229.891 13.6327 229.611 12.9233 229.602 12.046H231.17C231.179 12.4847 231.31 12.872 231.562 13.208C231.814 13.5347 232.173 13.754 232.64 13.866V10.492C232.565 10.4733 232.486 10.45 232.402 10.422C232.327 10.394 232.248 10.366 232.164 10.338C231.408 10.086 230.839 9.75933 230.456 9.358C230.083 8.95667 229.896 8.42933 229.896 7.776C229.887 7.01067 230.134 6.38533 230.638 5.9C231.142 5.41467 231.809 5.13 232.64 5.046V3.926H233.592V5.06C234.404 5.15333 235.057 5.44733 235.552 5.942C236.047 6.43667 236.299 7.05733 236.308 7.804H234.74C234.731 7.496 234.628 7.20667 234.432 6.936C234.245 6.656 233.965 6.46467 233.592 6.362V9.358C233.667 9.386 233.741 9.414 233.816 9.442C233.891 9.46067 233.965 9.484 234.04 9.512C234.525 9.67067 234.959 9.862 235.342 10.086C235.725 10.31 236.028 10.604 236.252 10.968C236.485 11.332 236.602 11.794 236.602 12.354C236.602 12.8207 236.49 13.2593 236.266 13.67C236.042 14.0713 235.706 14.4073 235.258 14.678C234.81 14.9487 234.255 15.1073 233.592 15.154V16.218H232.64ZM231.436 7.65C231.436 8.02333 231.543 8.31267 231.758 8.518C231.973 8.714 232.267 8.88667 232.64 9.036V6.32C232.285 6.38533 231.996 6.53467 231.772 6.768C231.548 6.992 231.436 7.286 231.436 7.65ZM235.034 12.452C235.034 11.9947 234.899 11.6493 234.628 11.416C234.357 11.1733 234.012 10.9727 233.592 10.814V13.894C234.049 13.838 234.404 13.6793 234.656 13.418C234.908 13.1567 235.034 12.8347 235.034 12.452ZM239.232 15V6.88L237.65 7.244V6.152L239.82 5.2H240.772V15H239.232ZM246.18 15.168C245.489 15.168 244.892 15.0467 244.388 14.804C243.884 14.552 243.482 14.2113 243.184 13.782C242.894 13.3433 242.717 12.8487 242.652 12.298H244.108C244.201 12.7647 244.434 13.152 244.808 13.46C245.181 13.7587 245.643 13.908 246.194 13.908C246.604 13.908 246.959 13.81 247.258 13.614C247.556 13.4087 247.79 13.138 247.958 12.802C248.126 12.466 248.21 12.088 248.21 11.668C248.21 11.0053 248.023 10.478 247.65 10.086C247.276 9.68467 246.805 9.484 246.236 9.484C245.75 9.484 245.335 9.60067 244.99 9.834C244.644 10.058 244.392 10.3427 244.234 10.688H242.82L243.66 5.2H248.952V6.502H244.78L244.276 9.12C244.49 8.87733 244.784 8.67667 245.158 8.518C245.54 8.35 245.97 8.266 246.446 8.266C247.108 8.266 247.678 8.42 248.154 8.728C248.63 9.02667 248.994 9.43267 249.246 9.946C249.507 10.4593 249.638 11.0287 249.638 11.654C249.638 12.3073 249.498 12.9 249.218 13.432C248.938 13.964 248.536 14.3887 248.014 14.706C247.5 15.014 246.889 15.168 246.18 15.168ZM250.337 16.442L253.837 4.206H255.293L251.779 16.442H250.337ZM256.598 15V4.92H258.082V9.176C258.315 8.77467 258.637 8.462 259.048 8.238C259.468 8.00467 259.93 7.888 260.434 7.888C261.265 7.888 261.918 8.14933 262.394 8.672C262.87 9.19467 263.108 9.974 263.108 11.01V15H261.638V11.164C261.638 9.82 261.101 9.148 260.028 9.148C259.468 9.148 259.001 9.344 258.628 9.736C258.264 10.128 258.082 10.688 258.082 11.416V15H256.598Z" fill="#72767C"/>
</svg>
