<svg width="148" height="153" viewBox="0 0 148 153" fill="none" xmlns="http://www.w3.org/2000/svg">
<path d="M13.9747 117.113C12.6241 117.971 10.8288 117.574 10.0247 116.191C3.5709 105.089 0.108462 92.483 0.00250614 79.609C-0.111408 65.7682 3.65881 52.1728 10.8849 40.3674C18.1109 28.562 28.5031 19.0199 40.8807 12.8251C52.3938 7.06307 65.1953 4.41187 78.0176 5.10913C79.615 5.19599 80.7853 6.61422 80.636 8.20704C80.4867 9.79987 79.0742 10.9636 77.4765 10.882C65.7339 10.2827 54.0175 12.7289 43.4736 18.0059C32.065 23.7157 22.4864 32.5108 15.8261 43.3919C9.16577 54.2731 5.69072 66.8041 5.79571 79.5613C5.89275 91.3516 9.04409 102.898 14.9196 113.083C15.7191 114.469 15.3252 116.256 13.9747 117.113Z" fill="#70CF97"/>
<mask id="path-2-inside-1_205_1167" fill="white">
<path d="M81.9125 8.32789C82.0898 6.74371 83.5191 5.5975 85.0952 5.8365C96.1501 7.51292 106.695 11.6751 115.929 18.0246C125.956 24.9199 134.128 34.1818 139.721 44.9899C145.315 55.798 148.156 67.8187 147.993 79.9872C147.844 91.1925 145.152 102.205 140.136 112.197C139.421 113.622 137.659 114.127 136.264 113.357C134.868 112.587 134.367 110.833 135.077 109.406C139.637 100.247 142.084 90.1661 142.221 79.9102C142.371 68.691 139.751 57.608 134.595 47.643C129.438 37.678 121.903 29.1386 112.658 22.7813C104.206 16.9697 94.5637 13.1455 84.4522 11.578C82.8769 11.3338 81.7351 9.91207 81.9125 8.32789Z"/>
</mask>
<path d="M81.9125 8.32789C82.0898 6.74371 83.5191 5.5975 85.0952 5.8365C96.1501 7.51292 106.695 11.6751 115.929 18.0246C125.956 24.9199 134.128 34.1818 139.721 44.9899C145.315 55.798 148.156 67.8187 147.993 79.9872C147.844 91.1925 145.152 102.205 140.136 112.197C139.421 113.622 137.659 114.127 136.264 113.357C134.868 112.587 134.367 110.833 135.077 109.406C139.637 100.247 142.084 90.1661 142.221 79.9102C142.371 68.691 139.751 57.608 134.595 47.643C129.438 37.678 121.903 29.1386 112.658 22.7813C104.206 16.9697 94.5637 13.1455 84.4522 11.578C82.8769 11.3338 81.7351 9.91207 81.9125 8.32789Z" fill="#A162F7" stroke="#A162F7" stroke-width="2" mask="url(#path-2-inside-1_205_1167)"/>
<mask id="path-3-inside-2_205_1167" fill="white">
<path d="M135.616 114.503C136.998 115.299 137.477 117.068 136.628 118.417C130.424 128.274 121.973 136.54 111.952 142.527C101.103 149.008 88.7749 152.603 76.1428 152.969C63.5107 153.335 50.9953 150.46 39.7894 144.617C29.4381 139.221 20.5228 131.458 13.7588 121.977C12.8327 120.679 13.209 118.885 14.5423 118.01C15.8756 117.135 17.6606 117.511 18.591 118.806C24.811 127.464 32.9823 134.556 42.4591 139.497C52.7905 144.883 64.3292 147.534 75.9756 147.197C87.6219 146.859 98.9878 143.545 108.99 137.569C118.165 132.088 125.912 124.536 131.62 115.532C132.474 114.185 134.235 113.707 135.616 114.503Z"/>
</mask>
<path d="M135.616 114.503C136.998 115.299 137.477 117.068 136.628 118.417C130.424 128.274 121.973 136.54 111.952 142.527C101.103 149.008 88.7749 152.603 76.1428 152.969C63.5107 153.335 50.9953 150.46 39.7894 144.617C29.4381 139.221 20.5228 131.458 13.7588 121.977C12.8327 120.679 13.209 118.885 14.5423 118.01C15.8756 117.135 17.6606 117.511 18.591 118.806C24.811 127.464 32.9823 134.556 42.4591 139.497C52.7905 144.883 64.3292 147.534 75.9756 147.197C87.6219 146.859 98.9878 143.545 108.99 137.569C118.165 132.088 125.912 124.536 131.62 115.532C132.474 114.185 134.235 113.707 135.616 114.503Z" fill="#FF6370" stroke="#FF6370" stroke-width="2" mask="url(#path-3-inside-2_205_1167)"/>
<circle cx="81.5" cy="9.5" r="7.5" fill="white" stroke="#70CF97" stroke-width="4"/>
<circle cx="134.5" cy="113.5" r="7.5" fill="white" stroke="#A162F7" stroke-width="4"/>
<circle cx="15.5" cy="117.5" r="7.5" fill="white" stroke="#FF6370" stroke-width="4"/>
<circle cx="73.5" cy="79.5" r="47.5" fill="#F7F7F7"/>
<path d="M51.5509 61.168C50.8416 61.168 50.2069 61.0467 49.6469 60.804C49.0963 60.5613 48.6576 60.2067 48.3309 59.74C48.0136 59.2733 47.8503 58.7087 47.8409 58.046H49.8429C49.8523 58.3353 49.9269 58.5967 50.0669 58.83C50.2069 59.0633 50.3983 59.25 50.6409 59.39C50.8929 59.5207 51.1916 59.586 51.5369 59.586C51.8356 59.586 52.0923 59.5393 52.3069 59.446C52.5309 59.3433 52.7036 59.2033 52.8249 59.026C52.9463 58.8487 53.0069 58.6387 53.0069 58.396C53.0069 58.116 52.9369 57.8827 52.7969 57.696C52.6663 57.5093 52.4796 57.3507 52.2369 57.22C52.0036 57.0893 51.7283 56.9727 51.4109 56.87C51.1029 56.758 50.7763 56.6413 50.4309 56.52C49.6563 56.268 49.0636 55.932 48.6529 55.512C48.2516 55.092 48.0509 54.5367 48.0509 53.846C48.0509 53.258 48.1909 52.754 48.4709 52.334C48.7603 51.914 49.1569 51.592 49.6609 51.368C50.1649 51.144 50.7389 51.032 51.3829 51.032C52.0456 51.032 52.6243 51.1487 53.1189 51.382C53.6229 51.606 54.0196 51.9327 54.3089 52.362C54.6076 52.7913 54.7616 53.2953 54.7709 53.874H52.7549C52.7456 53.6593 52.6803 53.4587 52.5589 53.272C52.4469 53.076 52.2883 52.922 52.0829 52.81C51.8776 52.6887 51.6349 52.628 51.3549 52.628C51.1123 52.6187 50.8883 52.656 50.6829 52.74C50.4869 52.824 50.3283 52.95 50.2069 53.118C50.0949 53.2767 50.0389 53.4773 50.0389 53.72C50.0389 53.9533 50.0949 54.1493 50.2069 54.308C50.3283 54.4667 50.4916 54.6067 50.6969 54.728C50.9023 54.84 51.1449 54.9473 51.4249 55.05C51.7049 55.1433 52.0083 55.2413 52.3349 55.344C52.8203 55.512 53.2683 55.7127 53.6789 55.946C54.0896 56.17 54.4163 56.464 54.6589 56.828C54.9016 57.192 55.0229 57.6727 55.0229 58.27C55.0229 58.7833 54.8876 59.2593 54.6169 59.698C54.3463 60.1367 53.9543 60.4913 53.4409 60.762C52.9369 61.0327 52.3069 61.168 51.5509 61.168ZM59.9722 61.168C59.2628 61.168 58.6328 61.0187 58.0822 60.72C57.5408 60.412 57.1162 59.9873 56.8082 59.446C56.5095 58.8953 56.3602 58.2607 56.3602 57.542C56.3602 56.8047 56.5095 56.156 56.8082 55.596C57.1162 55.0267 57.5408 54.5833 58.0822 54.266C58.6235 53.9393 59.2535 53.776 59.9722 53.776C60.6722 53.776 61.2835 53.93 61.8062 54.238C62.3288 54.546 62.7348 54.9613 63.0242 55.484C63.3135 56.0067 63.4582 56.5993 63.4582 57.262C63.4582 57.3553 63.4582 57.4627 63.4582 57.584C63.4582 57.696 63.4488 57.8127 63.4302 57.934H57.7042V56.786H61.5542C61.5262 56.3287 61.3628 55.9693 61.0642 55.708C60.7748 55.4467 60.4108 55.316 59.9722 55.316C59.6548 55.316 59.3608 55.3907 59.0902 55.54C58.8195 55.68 58.6048 55.8993 58.4462 56.198C58.2968 56.4967 58.2222 56.8747 58.2222 57.332V57.738C58.2222 58.1207 58.2922 58.4567 58.4322 58.746C58.5815 59.026 58.7868 59.2453 59.0482 59.404C59.3095 59.5533 59.6128 59.628 59.9582 59.628C60.3035 59.628 60.5882 59.5533 60.8122 59.404C61.0455 59.2547 61.2182 59.0633 61.3302 58.83H63.2622C63.1315 59.2687 62.9122 59.6653 62.6042 60.02C62.2962 60.3747 61.9182 60.6547 61.4702 60.86C61.0222 61.0653 60.5228 61.168 59.9722 61.168ZM65.006 61V53.944H66.686L66.868 55.246C67.036 54.938 67.246 54.6767 67.498 54.462C67.7594 54.2473 68.0534 54.0793 68.38 53.958C68.716 53.8367 69.0847 53.776 69.486 53.776V55.778H68.842C68.562 55.778 68.3007 55.8107 68.058 55.876C67.8247 55.9413 67.6194 56.0487 67.442 56.198C67.2647 56.338 67.1294 56.534 67.036 56.786C66.9427 57.038 66.896 57.3553 66.896 57.738V61H65.006ZM72.6245 61L70.0345 53.944H72.0225L73.7725 59.222L75.5225 53.944H77.4965L74.9205 61H72.6245ZM78.6926 61V53.944H80.5826V61H78.6926ZM79.6446 52.978C79.3086 52.978 79.0286 52.88 78.8046 52.684C78.5899 52.4787 78.4826 52.222 78.4826 51.914C78.4826 51.606 78.5899 51.354 78.8046 51.158C79.0286 50.9527 79.3086 50.85 79.6446 50.85C79.9899 50.85 80.2699 50.9527 80.4846 51.158C80.7086 51.354 80.8206 51.606 80.8206 51.914C80.8206 52.222 80.7086 52.4787 80.4846 52.684C80.2699 52.88 79.9899 52.978 79.6446 52.978ZM85.9084 61.168C85.199 61.168 84.569 61.0093 84.0184 60.692C83.4677 60.3747 83.0384 59.9407 82.7304 59.39C82.4224 58.8393 82.2684 58.2093 82.2684 57.5C82.2684 56.772 82.4224 56.1327 82.7304 55.582C83.0384 55.022 83.4677 54.5833 84.0184 54.266C84.569 53.9393 85.199 53.776 85.9084 53.776C86.8137 53.776 87.5744 54.014 88.1904 54.49C88.8064 54.966 89.1984 55.6193 89.3664 56.45H87.3644C87.2804 56.1233 87.103 55.8667 86.8324 55.68C86.571 55.4933 86.2584 55.4 85.8944 55.4C85.5677 55.4 85.2737 55.484 85.0124 55.652C84.7604 55.8107 84.5597 56.0487 84.4104 56.366C84.2704 56.674 84.2004 57.0427 84.2004 57.472C84.2004 57.7987 84.2424 58.0927 84.3264 58.354C84.4104 58.606 84.527 58.8253 84.6764 59.012C84.8257 59.1893 85.003 59.3247 85.2084 59.418C85.423 59.5113 85.6517 59.558 85.8944 59.558C86.137 59.558 86.3564 59.516 86.5524 59.432C86.7577 59.348 86.9304 59.2313 87.0704 59.082C87.2104 58.9233 87.3084 58.732 87.3644 58.508H89.3664C89.1984 59.32 88.8017 59.9687 88.1764 60.454C87.5604 60.93 86.8044 61.168 85.9084 61.168ZM94.3843 61.168C93.6749 61.168 93.0449 61.0187 92.4943 60.72C91.9529 60.412 91.5283 59.9873 91.2203 59.446C90.9216 58.8953 90.7723 58.2607 90.7723 57.542C90.7723 56.8047 90.9216 56.156 91.2203 55.596C91.5283 55.0267 91.9529 54.5833 92.4943 54.266C93.0356 53.9393 93.6656 53.776 94.3843 53.776C95.0843 53.776 95.6956 53.93 96.2183 54.238C96.7409 54.546 97.1469 54.9613 97.4363 55.484C97.7256 56.0067 97.8703 56.5993 97.8703 57.262C97.8703 57.3553 97.8703 57.4627 97.8703 57.584C97.8703 57.696 97.8609 57.8127 97.8423 57.934H92.1163V56.786H95.9663C95.9383 56.3287 95.7749 55.9693 95.4763 55.708C95.1869 55.4467 94.8229 55.316 94.3843 55.316C94.0669 55.316 93.7729 55.3907 93.5023 55.54C93.2316 55.68 93.0169 55.8993 92.8583 56.198C92.7089 56.4967 92.6343 56.8747 92.6343 57.332V57.738C92.6343 58.1207 92.7043 58.4567 92.8443 58.746C92.9936 59.026 93.1989 59.2453 93.4603 59.404C93.7216 59.5533 94.0249 59.628 94.3703 59.628C94.7156 59.628 95.0003 59.5533 95.2243 59.404C95.4576 59.2547 95.6303 59.0633 95.7423 58.83H97.6743C97.5436 59.2687 97.3243 59.6653 97.0163 60.02C96.7083 60.3747 96.3303 60.6547 95.8823 60.86C95.4343 61.0653 94.9349 61.168 94.3843 61.168ZM60.8496 79V70.726H57.9796V69.2H65.5816V70.726H62.7256V79H60.8496ZM66.9211 79V71.944H68.8111V79H66.9211ZM67.8731 70.978C67.5371 70.978 67.2571 70.88 67.0331 70.684C66.8184 70.4787 66.7111 70.222 66.7111 69.914C66.7111 69.606 66.8184 69.354 67.0331 69.158C67.2571 68.9527 67.5371 68.85 67.8731 68.85C68.2184 68.85 68.4984 68.9527 68.7131 69.158C68.9371 69.354 69.0491 69.606 69.0491 69.914C69.0491 70.222 68.9371 70.4787 68.7131 70.684C68.4984 70.88 68.2184 70.978 67.8731 70.978ZM70.7209 79V71.944H72.3869L72.5409 72.882C72.7649 72.546 73.0589 72.28 73.4229 72.084C73.7962 71.8787 74.2209 71.776 74.6969 71.776C75.0515 71.776 75.3689 71.8227 75.6489 71.916C75.9289 72.0093 76.1762 72.1447 76.3909 72.322C76.6149 72.4993 76.7969 72.7233 76.9369 72.994C77.1982 72.6113 77.5389 72.3127 77.9589 72.098C78.3789 71.8833 78.8362 71.776 79.3309 71.776C79.9469 71.776 80.4602 71.902 80.8709 72.154C81.2815 72.3967 81.5895 72.7513 81.7949 73.218C82.0095 73.6847 82.1169 74.2587 82.1169 74.94V79H80.2409V75.108C80.2409 74.548 80.1289 74.1187 79.9049 73.82C79.6902 73.5213 79.3542 73.372 78.8969 73.372C78.5982 73.372 78.3322 73.4467 78.0989 73.596C77.8655 73.7453 77.6835 73.96 77.5529 74.24C77.4315 74.52 77.3709 74.856 77.3709 75.248V79H75.4809V75.108C75.4809 74.548 75.3689 74.1187 75.1449 73.82C74.9209 73.5213 74.5755 73.372 74.1089 73.372C73.8195 73.372 73.5582 73.4467 73.3249 73.596C73.1009 73.7453 72.9235 73.96 72.7929 74.24C72.6715 74.52 72.6109 74.856 72.6109 75.248V79H70.7209ZM87.2886 79.168C86.5792 79.168 85.9492 79.0187 85.3986 78.72C84.8572 78.412 84.4326 77.9873 84.1246 77.446C83.8259 76.8953 83.6766 76.2607 83.6766 75.542C83.6766 74.8047 83.8259 74.156 84.1246 73.596C84.4326 73.0267 84.8572 72.5833 85.3986 72.266C85.9399 71.9393 86.5699 71.776 87.2886 71.776C87.9886 71.776 88.5999 71.93 89.1226 72.238C89.6452 72.546 90.0512 72.9613 90.3406 73.484C90.6299 74.0067 90.7746 74.5993 90.7746 75.262C90.7746 75.3553 90.7746 75.4627 90.7746 75.584C90.7746 75.696 90.7652 75.8127 90.7466 75.934H85.0206V74.786H88.8706C88.8426 74.3287 88.6792 73.9693 88.3806 73.708C88.0912 73.4467 87.7272 73.316 87.2886 73.316C86.9712 73.316 86.6772 73.3907 86.4066 73.54C86.1359 73.68 85.9212 73.8993 85.7626 74.198C85.6132 74.4967 85.5386 74.8747 85.5386 75.332V75.738C85.5386 76.1207 85.6086 76.4567 85.7486 76.746C85.8979 77.026 86.1032 77.2453 86.3646 77.404C86.6259 77.5533 86.9292 77.628 87.2746 77.628C87.6199 77.628 87.9046 77.5533 88.1286 77.404C88.3619 77.2547 88.5346 77.0633 88.6466 76.83H90.5786C90.4479 77.2687 90.2286 77.6653 89.9206 78.02C89.6126 78.3747 89.2346 78.6547 88.7866 78.86C88.3386 79.0653 87.8392 79.168 87.2886 79.168Z" fill="#5F6165"/>
<path d="M56.8489 108.288C55.6009 108.288 54.5289 108.072 53.6329 107.64C52.7529 107.192 52.0569 106.592 51.5449 105.84C51.0489 105.072 50.7609 104.208 50.6809 103.248H53.8489C53.9769 103.888 54.3129 104.432 54.8569 104.88C55.4009 105.312 56.0649 105.528 56.8489 105.528C57.4249 105.528 57.9289 105.384 58.3609 105.096C58.7929 104.808 59.1289 104.416 59.3689 103.92C59.6249 103.408 59.7529 102.848 59.7529 102.24C59.7529 101.584 59.6249 101.024 59.3689 100.56C59.1289 100.08 58.7929 99.72 58.3609 99.48C57.9289 99.224 57.4329 99.096 56.8729 99.096C56.2009 99.096 55.6089 99.264 55.0969 99.6C54.5849 99.936 54.2329 100.36 54.0409 100.872H50.9209L52.3609 91.2H61.7209V94.032H54.7609L54.0409 97.728C54.3929 97.36 54.8649 97.056 55.4569 96.816C56.0489 96.576 56.7129 96.456 57.4489 96.456C58.3609 96.456 59.1529 96.616 59.8249 96.936C60.4969 97.24 61.0569 97.664 61.5049 98.208C61.9689 98.752 62.3129 99.368 62.5369 100.056C62.7609 100.744 62.8729 101.456 62.8729 102.192C62.8729 103.088 62.7289 103.912 62.4409 104.664C62.1529 105.4 61.7369 106.04 61.1929 106.584C60.6649 107.128 60.0249 107.552 59.2729 107.856C58.5369 108.144 57.7289 108.288 56.8489 108.288ZM64.5312 110.952L65.8992 104.856H69.0192L66.6432 110.952H64.5312ZM76.6418 108V105.624C77.6498 104.808 78.6338 103.992 79.5938 103.176C80.5538 102.36 81.4178 101.552 82.1858 100.752C82.9538 99.936 83.5538 99.144 83.9858 98.376C84.4338 97.608 84.6578 96.864 84.6578 96.144C84.6578 95.696 84.5778 95.288 84.4178 94.92C84.2578 94.536 84.0098 94.232 83.6738 94.008C83.3378 93.768 82.8898 93.648 82.3298 93.648C81.7858 93.648 81.3218 93.776 80.9378 94.032C80.5538 94.288 80.2658 94.632 80.0738 95.064C79.8818 95.48 79.7858 95.952 79.7858 96.48H76.6658C76.6978 95.248 76.9698 94.216 77.4818 93.384C77.9938 92.552 78.6818 91.936 79.5458 91.536C80.4098 91.12 81.3698 90.912 82.4258 90.912C83.6098 90.912 84.6018 91.136 85.4018 91.584C86.2178 92.016 86.8338 92.608 87.2498 93.36C87.6818 94.112 87.8978 94.976 87.8978 95.952C87.8978 96.688 87.7618 97.408 87.4898 98.112C87.2338 98.816 86.8738 99.504 86.4098 100.176C85.9458 100.832 85.4178 101.464 84.8258 102.072C84.2338 102.68 83.6178 103.264 82.9778 103.824C82.3538 104.368 81.7458 104.88 81.1538 105.36H88.2818V108H76.6418ZM90.1008 108V97.92H91.9908V101.994C92.2241 101.621 92.5321 101.327 92.9148 101.112C93.3068 100.888 93.7594 100.776 94.2728 100.776C94.8608 100.776 95.3554 100.902 95.7568 101.154C96.1581 101.397 96.4614 101.751 96.6668 102.218C96.8721 102.685 96.9748 103.263 96.9748 103.954V108H95.0988V104.122C95.0988 103.562 94.9821 103.133 94.7488 102.834C94.5154 102.526 94.1468 102.372 93.6428 102.372C93.3348 102.372 93.0548 102.447 92.8028 102.596C92.5508 102.745 92.3501 102.965 92.2008 103.254C92.0608 103.534 91.9908 103.87 91.9908 104.262V108H90.1008Z" fill="#A162F7"/>
</svg>
