<svg width="48" height="268" viewBox="0 0 48 268" fill="none" xmlns="http://www.w3.org/2000/svg">
<circle cx="24" cy="24" r="24" fill="#70CF97" fill-opacity="0.1"/>
<path d="M23.8849 26.9691C23.2014 26.9691 22.5609 26.7554 22.0055 26.3711L23.8849 27.9941L25.7642 26.3711C25.1662 26.7556 24.5256 26.9691 23.8849 26.9691Z" fill="#70CF97"/>
<path d="M32.0854 29.9152C32.0001 29.1036 31.4447 28.4631 30.6759 28.2067L27.1308 27.1389L26.4475 29.5309C26.2767 30.1288 25.5934 30.3424 25.1235 30.0007L23.8849 29.1036L22.6463 30.0006C22.1765 30.3423 21.4932 30.1288 21.3223 29.5309L20.6388 27.1391L17.0938 28.2069C16.325 28.4205 15.7697 29.1038 15.6842 29.9154L15.3427 33.2467C15.2573 33.8446 15.7697 34.3998 16.3677 34.3998H31.3593C32 34.3998 32.4699 33.8446 32.4271 33.2467L32.0854 29.9152Z" fill="#70CF97"/>
<path d="M26.1914 19.3232C25.4226 19.6222 24.6538 19.7503 23.9277 19.7503C22.561 19.7503 21.5785 19.2377 21.1087 18.9387C20.169 20.1773 20.169 22.7827 20.169 22.8254C20.7243 24.7474 22.1765 26.5412 23.8849 26.5412C25.5934 26.5412 27.0455 24.7047 27.6008 22.7827C27.7717 21.4587 26.5331 19.9211 26.1913 19.3231L26.1914 19.3232Z" fill="#70CF97"/>
<path d="M28.1557 18.7682C28.1129 17.7857 27.7286 16.8888 27.0879 16.1628C26.2763 15.8211 25.3794 15.4367 24.7815 15.1803C24.7815 15.1803 21.0656 14.0272 20.2114 17.0169C20.1686 17.0597 20.1686 17.0597 20.126 17.0597C20.0407 17.0597 19.9124 17.1024 19.7417 17.145C19.4855 17.6576 19.3574 18.1701 19.3146 18.768C19.4855 18.9389 19.6136 19.1951 19.6136 19.4515L19.6134 21.8434C19.6134 21.9715 19.5707 22.057 19.5707 22.1851C19.6988 22.4414 19.8269 22.6977 19.955 22.8686C19.955 22.8686 19.3998 19.708 20.8519 18.4266C20.8519 18.4266 22.9875 20.2632 26.3617 18.8537C26.3617 18.8537 27.9847 20.9465 27.6857 22.8686C27.6857 22.8686 27.8138 22.6549 27.8993 22.3134C27.814 22.1852 27.7712 22.0144 27.7712 21.8435V19.4943C27.8567 19.1952 27.9848 18.939 28.1557 18.7681L28.1557 18.7682Z" fill="#70CF97"/>
<path d="M21.0229 27.0116L21.7064 29.4034C21.7917 29.7023 22.1334 29.7877 22.3471 29.617L23.8419 28.5492L21.5783 26.5845L21.0229 27.0116Z" fill="#70CF97"/>
<path d="M26.063 29.4461L26.7465 27.0543L26.1485 26.6272L23.8847 28.5919L25.3796 29.6597C25.6359 29.8306 25.9775 29.7023 26.063 29.4461V29.4461Z" fill="#70CF97"/>
<path d="M18.5887 22.356H18.7168C19.0158 22.356 19.272 22.0998 19.272 21.8008V19.4516C19.272 19.238 19.1439 19.0673 18.973 18.9818C19.0158 16.3337 21.1514 14.1982 23.7994 14.1982C26.4475 14.1982 28.6258 16.3337 28.6258 18.9818C28.4549 19.0672 28.3268 19.238 28.3268 19.4516L28.327 21.8434C28.327 22.1424 28.5832 22.3986 28.8822 22.3986H29.0103C29.5228 22.3986 29.95 21.9716 29.95 21.459V19.9214C29.95 19.4943 29.651 19.1526 29.2665 19.0244C29.2238 16.0347 26.7892 13.6001 23.7995 13.6001C20.8098 13.6001 18.3751 16.0346 18.3324 19.0244C17.9481 19.1525 17.649 19.4942 17.649 19.9214L17.6491 21.4164C17.6491 21.9288 18.0762 22.356 18.5888 22.356H18.5887Z" fill="#70CF97"/>
<rect x="22.5" y="59" width="3" height="40" rx="1.5" fill="#70CF97"/>
<circle cx="24" cy="134" r="24" fill="#A162F7" fill-opacity="0.1"/>
<path d="M18.3808 130.197L18.5142 130.33L20.3653 128.479L20.232 128.345C20.7482 127.102 20.5019 125.616 19.4904 124.604C18.4786 123.592 16.9925 123.346 15.7483 123.862L17.9902 126.104L16.1391 127.955L13.8975 125.713C13.3809 126.958 13.6276 128.444 14.6394 129.455C15.6512 130.466 17.1372 130.713 18.3807 130.197L18.3808 130.197Z" fill="#A162F7"/>
<path d="M30.6713 128.528L32.3546 127.972L33.9279 125.263L32.7925 124.128L30.0839 125.701L29.5285 127.385L28.1248 128.788L29.2676 129.931L30.6713 128.528Z" fill="#A162F7"/>
<path d="M34.1926 142.287C34.7092 141.043 34.4635 139.557 33.4521 138.545C32.4399 137.534 30.9537 137.287 29.7101 137.803L29.5074 137.601L27.6561 139.452L27.8588 139.655C27.3422 140.898 27.5886 142.385 28.6007 143.396C29.6122 144.408 31.0985 144.655 32.342 144.138L30.1004 141.896L31.9517 140.045L34.1926 142.287Z" fill="#A162F7"/>
<path d="M28.3951 136.419C28.5866 136.079 28.739 135.714 28.8463 135.331H30.1526V132.615H28.8463C28.739 132.231 28.5861 131.867 28.3951 131.526L29.3188 130.603L27.3989 128.682L26.4753 129.606C26.1348 129.415 25.7699 129.262 25.3861 129.154V127.849H22.6708V129.154C22.287 129.262 21.9223 129.415 21.5816 129.606L20.658 128.682L18.7377 130.603L19.6613 131.526C19.4703 131.867 19.3177 132.232 19.2096 132.615H17.904V135.331H19.2096C19.3177 135.715 19.4701 136.079 19.6613 136.419L18.7377 137.343L20.658 139.263L21.5816 138.34C21.9223 138.531 22.287 138.683 22.6708 138.791V140.097H25.3861V138.791C25.7702 138.683 26.1348 138.53 26.4753 138.34L27.3989 139.263L29.3188 137.343L28.3951 136.419ZM24.028 136.843C22.4428 136.843 21.1575 135.558 21.1575 133.973C21.1575 132.388 22.443 131.102 24.028 131.102C25.6137 131.102 26.8986 132.388 26.8986 133.973C26.8988 135.558 25.6137 136.843 24.028 136.843Z" fill="#A162F7"/>
<path d="M15.9869 144.399L13.6 142.011L18.2898 137.322L20.6767 139.71L15.9869 144.399Z" fill="#A162F7"/>
<rect x="22.5" y="169" width="3" height="40" rx="1.5" fill="#A162F7"/>
<circle cx="24" cy="244" r="24" fill="#FF7E86" fill-opacity="0.1"/>
<path fill-rule="evenodd" clip-rule="evenodd" d="M23.5117 232V233.566C22.2674 233.897 20.8454 234.843 20.8258 235.633C20.8201 235.866 21.013 236.053 21.2455 236.053H27.4313C27.6638 236.053 27.8567 235.866 27.8509 235.633C27.8314 234.843 26.4093 233.897 25.1651 233.566V232H23.5117Z" fill="#FF6370"/>
<path fill-rule="evenodd" clip-rule="evenodd" d="M26.0412 237.786C26.0416 237.974 25.9672 238.155 25.8343 238.288C25.7015 238.421 25.5211 238.496 25.3329 238.496C25.1448 238.496 24.9644 238.421 24.8316 238.288C24.6988 238.155 24.6244 237.974 24.6247 237.786C24.6244 237.598 24.6988 237.417 24.8316 237.284C24.9644 237.151 25.1448 237.076 25.3329 237.076C25.5211 237.076 25.7015 237.151 25.8343 237.284C25.9672 237.417 26.0416 237.598 26.0412 237.786Z" fill="#FF6370"/>
<path fill-rule="evenodd" clip-rule="evenodd" d="M28.0308 237.786C28.0312 237.974 27.9568 238.155 27.824 238.288C27.6912 238.421 27.5107 238.496 27.3225 238.496C27.1344 238.496 26.954 238.421 26.8212 238.288C26.6884 238.155 26.614 237.974 26.6144 237.786C26.614 237.598 26.6884 237.417 26.8212 237.284C26.954 237.151 27.1345 237.076 27.3225 237.076C27.5107 237.076 27.6912 237.151 27.824 237.284C27.9568 237.417 28.0312 237.598 28.0308 237.786Z" fill="#FF6370"/>
<path fill-rule="evenodd" clip-rule="evenodd" d="M28.3779 240.158C28.3783 240.346 28.3039 240.526 28.1711 240.66C28.0383 240.793 27.8578 240.868 27.6696 240.868C27.4815 240.868 27.3011 240.793 27.1683 240.66C27.0355 240.526 26.9611 240.346 26.9615 240.158C26.9611 239.969 27.0355 239.789 27.1683 239.656C27.3011 239.522 27.4816 239.448 27.6696 239.448C27.8578 239.448 28.0383 239.522 28.1711 239.656C28.3039 239.789 28.3783 239.969 28.3779 240.158Z" fill="#FF6370"/>
<path fill-rule="evenodd" clip-rule="evenodd" d="M28.725 242.53C28.7254 242.718 28.651 242.898 28.5182 243.032C28.3854 243.165 28.2049 243.24 28.0167 243.24C27.8287 243.24 27.6482 243.165 27.5154 243.032C27.3826 242.898 27.3082 242.718 27.3086 242.53C27.3082 242.342 27.3826 242.161 27.5154 242.028C27.6482 241.895 27.8287 241.82 28.0167 241.82C28.205 241.82 28.3854 241.895 28.5182 242.028C28.651 242.161 28.7254 242.342 28.725 242.53Z" fill="#FF6370"/>
<path fill-rule="evenodd" clip-rule="evenodd" d="M26.157 240.358C26.1574 240.546 26.083 240.727 25.9501 240.86C25.8173 240.993 25.6369 241.068 25.4487 241.068C25.2606 241.068 25.0802 240.993 24.9474 240.86C24.8146 240.727 24.7402 240.546 24.7405 240.358C24.7402 240.17 24.8146 239.989 24.9474 239.856C25.0802 239.723 25.2606 239.648 25.4487 239.648C25.6369 239.648 25.8173 239.723 25.9501 239.856C26.083 239.989 26.1574 240.17 26.157 240.358Z" fill="#FF6370"/>
<path fill-rule="evenodd" clip-rule="evenodd" d="M26.2727 242.93C26.273 243.118 26.1986 243.299 26.0658 243.432C25.933 243.565 25.7526 243.64 25.5643 243.64C25.3763 243.64 25.1958 243.565 25.063 243.432C24.9302 243.299 24.8558 243.118 24.8562 242.93C24.8558 242.742 24.9302 242.561 25.063 242.428C25.1958 242.295 25.3763 242.22 25.5643 242.22C25.7526 242.22 25.933 242.295 26.0658 242.428C26.1986 242.561 26.273 242.742 26.2727 242.93Z" fill="#FF6370"/>
<path fill-rule="evenodd" clip-rule="evenodd" d="M22.6355 237.786C22.6352 237.974 22.7096 238.155 22.8424 238.288C22.9752 238.421 23.1556 238.496 23.3439 238.496C23.5319 238.496 23.7124 238.421 23.8452 238.288C23.978 238.155 24.0524 237.974 24.052 237.786C24.0524 237.598 23.978 237.417 23.8452 237.284C23.7124 237.151 23.5319 237.076 23.3439 237.076C23.1556 237.076 22.9752 237.151 22.8424 237.284C22.7096 237.417 22.6352 237.598 22.6355 237.786Z" fill="#FF6370"/>
<path fill-rule="evenodd" clip-rule="evenodd" d="M20.6459 237.786C20.6455 237.974 20.7199 238.155 20.8528 238.288C20.9856 238.421 21.166 238.496 21.3542 238.496C21.5423 238.496 21.7227 238.421 21.8555 238.288C21.9883 238.155 22.0627 237.974 22.0624 237.786C22.0627 237.598 21.9883 237.417 21.8555 237.284C21.7227 237.151 21.5423 237.076 21.3542 237.076C21.166 237.076 20.9856 237.151 20.8528 237.284C20.7199 237.417 20.6455 237.598 20.6459 237.786Z" fill="#FF6370"/>
<path fill-rule="evenodd" clip-rule="evenodd" d="M20.2992 240.158C20.2989 240.346 20.3733 240.526 20.5061 240.66C20.6389 240.793 20.8193 240.868 21.0076 240.868C21.1956 240.868 21.3761 240.793 21.5089 240.66C21.6417 240.526 21.7161 240.346 21.7157 240.158C21.7161 239.969 21.6417 239.789 21.5089 239.656C21.3761 239.522 21.1956 239.448 21.0076 239.448C20.8193 239.448 20.6389 239.522 20.5061 239.656C20.3733 239.789 20.2989 239.969 20.2992 240.158Z" fill="#FF6370"/>
<path fill-rule="evenodd" clip-rule="evenodd" d="M19.9517 242.53C19.9513 242.718 20.0257 242.898 20.1585 243.032C20.2914 243.165 20.4718 243.24 20.66 243.24C20.8481 243.24 21.0285 243.165 21.1613 243.032C21.2941 242.898 21.3685 242.718 21.3682 242.53C21.3685 242.342 21.2941 242.161 21.1613 242.028C21.0285 241.895 20.8481 241.82 20.66 241.82C20.4718 241.82 20.2913 241.895 20.1585 242.028C20.0257 242.161 19.9513 242.342 19.9517 242.53Z" fill="#FF6370"/>
<path fill-rule="evenodd" clip-rule="evenodd" d="M22.5197 240.358C22.5194 240.546 22.5938 240.727 22.7266 240.86C22.8594 240.993 23.0398 241.068 23.2281 241.068C23.4161 241.068 23.5966 240.993 23.7294 240.86C23.8622 240.727 23.9366 240.546 23.9362 240.358C23.9366 240.17 23.8622 239.989 23.7294 239.856C23.5965 239.723 23.4161 239.648 23.2281 239.648C23.0398 239.648 22.8594 239.723 22.7266 239.856C22.5938 239.989 22.5194 240.17 22.5197 240.358Z" fill="#FF6370"/>
<path fill-rule="evenodd" clip-rule="evenodd" d="M22.4041 242.93C22.4037 243.118 22.4781 243.299 22.6109 243.432C22.7437 243.565 22.9242 243.64 23.1124 243.64C23.3005 243.64 23.4809 243.565 23.6137 243.432C23.7465 243.299 23.8209 243.118 23.8206 242.93C23.8209 242.742 23.7465 242.561 23.6137 242.428C23.4809 242.295 23.3005 242.22 23.1124 242.22C22.9242 242.22 22.7437 242.295 22.6109 242.428C22.4781 242.561 22.4037 242.742 22.4041 242.93Z" fill="#FF6370"/>
<path fill-rule="evenodd" clip-rule="evenodd" d="M20.5426 244.398C20.3996 244.398 20.2582 244.47 20.1741 244.586L17.0871 248.839C17.0311 248.916 17 249.011 17 249.106V252.889C17 253.008 17.0491 253.127 17.1332 253.211C17.2174 253.295 17.3356 253.344 17.4546 253.344H31.2224C31.3414 253.344 31.4597 253.295 31.5438 253.211C31.6281 253.126 31.677 253.008 31.677 252.889V249.106C31.677 249.011 31.6459 248.916 31.5899 248.839L28.5029 244.586C28.4188 244.47 28.2774 244.398 28.1344 244.398H20.5426ZM20.6466 244.864H28.0305C28.1187 244.864 28.205 244.909 28.2552 244.982L29.6522 246.975C29.7098 247.057 29.7173 247.172 29.6708 247.261C29.6244 247.35 29.526 247.409 29.4256 247.409H19.2512C19.1508 247.409 19.0525 247.35 19.006 247.261C18.9595 247.171 18.967 247.057 19.0247 246.975L20.4216 244.982C20.4718 244.909 20.5582 244.864 20.6463 244.864H20.6466ZM19.4042 249.322C20.0062 249.322 20.4939 249.81 20.4939 250.412C20.4939 251.014 20.006 251.501 19.4042 251.501C18.8023 251.501 18.3145 251.013 18.3145 250.412C18.3145 249.81 18.8024 249.322 19.4042 249.322ZM29.2729 249.322C29.8748 249.322 30.3626 249.81 30.3626 250.412C30.3626 251.014 29.8746 251.501 29.2729 251.501C28.6709 251.501 28.1823 251.013 28.1823 250.412C28.1823 249.81 28.671 249.322 29.2729 249.322Z" fill="#FF6370"/>
<path fill-rule="evenodd" clip-rule="evenodd" d="M18.5373 252.822V255.358C18.5373 255.714 18.8319 256 19.198 256H20.238C20.6043 256 20.8987 255.714 20.8987 255.358V252.822H18.5373ZM27.956 252.822V255.358C27.956 255.714 28.2506 256 28.6167 256H29.6557C30.022 256 30.3174 255.714 30.3174 255.358V252.822H27.956Z" fill="#FF6370"/>
<path fill-rule="evenodd" clip-rule="evenodd" d="M29.5322 246.091L30.5213 247.459L30.817 247.414C31.2231 247.352 31.5481 246.993 31.4465 246.631C31.2345 245.875 30.1856 246.091 29.5321 246.091L29.5322 246.091Z" fill="#FF6370"/>
<path fill-rule="evenodd" clip-rule="evenodd" d="M19.145 246.091L18.156 247.459L17.8602 247.414C17.4542 247.352 17.1292 246.993 17.2307 246.631C17.4428 245.875 18.4917 246.091 19.1452 246.091L19.145 246.091Z" fill="#FF6370"/>
</svg>
