<svg width="143" height="31" viewBox="0 0 143 31" fill="none" xmlns="http://www.w3.org/2000/svg">
<rect y="2.07501" width="26.914" height="26.85" rx="6" fill="#A162F7"/>
<path d="M9.1273 21.7071L10.8492 19.9851C6.48698 17.3448 7.21403 13.3365 8.12284 11.6624L13.5039 16.9L18.885 11.6624C20.9513 16.1394 17.8805 19.0285 16.0868 19.9134L17.9523 21.7071C24.6248 16.6847 21.3961 9.94045 18.885 8.07501L13.5039 13.4561L7.97934 8.07501C2.09602 13.8148 6.25741 20.2721 9.1273 21.7071Z" fill="white"/>
<path d="M46.3061 24.288C45.0901 24.288 44.0181 24.024 43.0901 23.496C42.1621 22.968 41.4261 22.232 40.8821 21.288C40.3541 20.344 40.0901 19.264 40.0901 18.048C40.0901 16.832 40.3541 15.752 40.8821 14.808C41.4261 13.864 42.1621 13.128 43.0901 12.6C44.0181 12.072 45.0901 11.808 46.3061 11.808C47.8261 11.808 49.1061 12.208 50.1461 13.008C51.1861 13.792 51.8501 14.88 52.1381 16.272H48.8981C48.7381 15.696 48.4181 15.248 47.9381 14.928C47.4741 14.592 46.9221 14.424 46.2821 14.424C45.4341 14.424 44.7141 14.744 44.1221 15.384C43.5301 16.024 43.2341 16.912 43.2341 18.048C43.2341 19.184 43.5301 20.072 44.1221 20.712C44.7141 21.352 45.4341 21.672 46.2821 21.672C46.9221 21.672 47.4741 21.512 47.9381 21.192C48.4181 20.872 48.7381 20.416 48.8981 19.824H52.1381C51.8501 21.168 51.1861 22.248 50.1461 23.064C49.1061 23.88 47.8261 24.288 46.3061 24.288ZM58.9687 24.288C57.9447 24.288 57.1047 24.128 56.4487 23.808C55.7927 23.472 55.3047 23.032 54.9847 22.488C54.6647 21.944 54.5047 21.344 54.5047 20.688C54.5047 19.584 54.9367 18.688 55.8007 18C56.6647 17.312 57.9607 16.968 59.6887 16.968H62.7127V16.68C62.7127 15.864 62.4807 15.264 62.0167 14.88C61.5527 14.496 60.9767 14.304 60.2887 14.304C59.6647 14.304 59.1207 14.456 58.6567 14.76C58.1927 15.048 57.9047 15.48 57.7927 16.056H54.7927C54.8727 15.192 55.1607 14.44 55.6567 13.8C56.1687 13.16 56.8247 12.672 57.6247 12.336C58.4247 11.984 59.3207 11.808 60.3127 11.808C62.0087 11.808 63.3447 12.232 64.3207 13.08C65.2967 13.928 65.7847 15.128 65.7847 16.68V24H63.1687L62.8807 22.08C62.5287 22.72 62.0327 23.248 61.3927 23.664C60.7687 24.08 59.9607 24.288 58.9687 24.288ZM59.6647 21.888C60.5447 21.888 61.2247 21.6 61.7047 21.024C62.2007 20.448 62.5127 19.736 62.6407 18.888H60.0247C59.2087 18.888 58.6247 19.04 58.2727 19.344C57.9207 19.632 57.7447 19.992 57.7447 20.424C57.7447 20.888 57.9207 21.248 58.2727 21.504C58.6247 21.76 59.0887 21.888 59.6647 21.888ZM68.7163 24V12.096H71.4523L71.7403 14.328C72.1723 13.56 72.7563 12.952 73.4922 12.504C74.2443 12.04 75.1243 11.808 76.1323 11.808V15.048H75.2683C74.5963 15.048 73.9963 15.152 73.4683 15.36C72.9403 15.568 72.5243 15.928 72.2203 16.44C71.9323 16.952 71.7883 17.664 71.7883 18.576V24H68.7163ZM82.3359 24.288C81.3119 24.288 80.4719 24.128 79.8159 23.808C79.1599 23.472 78.6719 23.032 78.3519 22.488C78.0319 21.944 77.8719 21.344 77.8719 20.688C77.8719 19.584 78.3039 18.688 79.1679 18C80.0319 17.312 81.3279 16.968 83.0559 16.968H86.0799V16.68C86.0799 15.864 85.8479 15.264 85.3839 14.88C84.9199 14.496 84.3439 14.304 83.6559 14.304C83.0319 14.304 82.4879 14.456 82.0239 14.76C81.5599 15.048 81.2719 15.48 81.1599 16.056H78.1599C78.2399 15.192 78.5279 14.44 79.0239 13.8C79.5359 13.16 80.1919 12.672 80.9919 12.336C81.7919 11.984 82.6879 11.808 83.6799 11.808C85.3759 11.808 86.7119 12.232 87.6879 13.08C88.6639 13.928 89.1519 15.128 89.1519 16.68V24H86.5359L86.2479 22.08C85.8959 22.72 85.3999 23.248 84.7599 23.664C84.1359 24.08 83.3279 24.288 82.3359 24.288ZM83.0319 21.888C83.9119 21.888 84.5919 21.6 85.0719 21.024C85.5679 20.448 85.8799 19.736 86.0079 18.888H83.3919C82.5759 18.888 81.9919 19.04 81.6399 19.344C81.2879 19.632 81.1119 19.992 81.1119 20.424C81.1119 20.888 81.2879 21.248 81.6399 21.504C81.9919 21.76 82.4559 21.888 83.0319 21.888ZM97.5554 24.288C96.4354 24.288 95.4354 24.016 94.5554 23.472C93.6754 22.928 92.9794 22.184 92.4674 21.24C91.9554 20.296 91.6994 19.224 91.6994 18.024C91.6994 16.824 91.9554 15.76 92.4674 14.832C92.9794 13.888 93.6754 13.152 94.5554 12.624C95.4354 12.08 96.4354 11.808 97.5554 11.808C98.4514 11.808 99.2354 11.976 99.9074 12.312C100.579 12.648 101.123 13.12 101.539 13.728V6.72H104.611V24H101.875L101.539 22.296C101.155 22.824 100.643 23.288 100.003 23.688C99.3794 24.088 98.5634 24.288 97.5554 24.288ZM98.2034 21.6C99.1954 21.6 100.003 21.272 100.627 20.616C101.267 19.944 101.587 19.088 101.587 18.048C101.587 17.008 101.267 16.16 100.627 15.504C100.003 14.832 99.1954 14.496 98.2034 14.496C97.2274 14.496 96.4194 14.824 95.7794 15.48C95.1394 16.136 94.8194 16.984 94.8194 18.024C94.8194 19.064 95.1394 19.92 95.7794 20.592C96.4194 21.264 97.2274 21.6 98.2034 21.6ZM110.956 24L106.588 12.096H109.804L112.828 21.096L115.852 12.096H119.068L114.676 24H110.956ZM126.203 24.288C125.003 24.288 123.939 24.032 123.011 23.52C122.083 23.008 121.355 22.288 120.827 21.36C120.299 20.432 120.035 19.36 120.035 18.144C120.035 16.912 120.291 15.816 120.803 14.856C121.331 13.896 122.051 13.152 122.963 12.624C123.891 12.08 124.979 11.808 126.227 11.808C127.395 11.808 128.427 12.064 129.323 12.576C130.219 13.088 130.915 13.792 131.411 14.688C131.923 15.568 132.179 16.552 132.179 17.64C132.179 17.816 132.171 18 132.155 18.192C132.155 18.384 132.147 18.584 132.131 18.792H123.083C123.147 19.72 123.467 20.448 124.043 20.976C124.635 21.504 125.347 21.768 126.179 21.768C126.803 21.768 127.323 21.632 127.739 21.36C128.171 21.072 128.491 20.704 128.699 20.256H131.819C131.595 21.008 131.219 21.696 130.691 22.32C130.179 22.928 129.539 23.408 128.771 23.76C128.019 24.112 127.163 24.288 126.203 24.288ZM126.227 14.304C125.475 14.304 124.811 14.52 124.235 14.952C123.659 15.368 123.291 16.008 123.131 16.872H129.059C129.011 16.088 128.723 15.464 128.195 15C127.667 14.536 127.011 14.304 126.227 14.304ZM134.763 24V12.096H137.499L137.787 14.328C138.219 13.56 138.803 12.952 139.539 12.504C140.291 12.04 141.171 11.808 142.179 11.808V15.048H141.315C140.643 15.048 140.043 15.152 139.515 15.36C138.987 15.568 138.571 15.928 138.267 16.44C137.979 16.952 137.835 17.664 137.835 18.576V24H134.763Z" fill="#1F2128"/>
</svg>
